/* XPM */
static char *result[] = {
/* columns rows colors chars-per-pixel */
"64 64 11 1 ",
"  c black",
". c #38002C",
"X c #683C34",
"o c #222A5C",
"O c #2C5B6D",
"+ c #A36D3E",
"@ c #AB1F65",
"# c #E6336A",
"$ c #158968",
"% c #663B93",
"& c None",
/* pixels */
"&&&&&&&&&&&&&&&&&&&&&&&&&&&&&&&&&&&&&&&&&&      &&&&&&&&&&&&&&&&",
"&&&&&&&&&&&&&&&&&&&&&&&&&&&&&&&&&&&&&&&&&&      &&&&&&&&&&&&&&&&",
"&&&&&&&&&&&&&&&&&&&&&&&&&&&&&&&&&&&&      ......  &&&&&&&&&&&&&&",
"&&&&&&&&&&&&&&&&&&&&&&&&&&&&&&&&&&&&      ......  &&&&&&&&&&&&&&",
"&&&&&&&&&&&&&&&&&&&&&&&&&&&&&&&&    ............  &&&&&&&&&&&&&&",
"&&&&&&&&&&&&&&&&&&&&&&&&&&&&&&&&    ............  &&&&&&&&&&&&&&",
"&&&&&&&&&&&&&&&&&&&&&&&&&&&&&&  ..............  &&&&&&&&&&&&&&&&",
"&&&&&&&&&&&&&&&&&&&&&&&&&&&&&&  ..............  &&&&&&&&&&&&&&&&",
"&&&&&&&&&&&&&&&&&&&&&&&&&&&&&&  ....++++....  &&&&&&&&&&&&&&&&&&",
"&&&&&&&&&&&&&&&&&&&&&&&&&&&&&&  ....++++....  &&&&&&&&&&&&&&&&&&",
"&&&&&&&&&&&&&&&&&&&&&&&&&&        ++  %%++++  &&&&&&&&&&&&&&&&&&",
"&&&&&&&&&&&&&&&&&&&&&&&&&&        ++  %%++++  &&&&&&&&&&&&&&&&&&",
"&&&&&&&&&&&&&&&&&&          ####  ++%%%%%%    &&&&&&&&&&&&&&&&&&",
"&&&&&&&&&&&&&&&&&&          ####  ++%%%%%%    &&&&&&&&&&&&&&&&&&",
"&&&&&&&&&&&&      ++++++++  ########++%%        &&&&&&&&&&&&&&&&",
"&&&&&&&&&&&&      ++++++++  ########++%%        &&&&&&&&&&&&&&&&",
"&&&&&&&&&&  ++++++++++++++++@@######++++++####  &&&&&&&&&&&&&&&&",
"&&&&&&&&&&  ++++++++++++++++@@######++++++####  &&&&&&&&&&&&&&&&",
"&&&&&&&&  ++++++++++++++++++########++++++####  &&&&&&&&&&&&&&&&",
"&&&&&&&&  ++++++++++++++++++########++++++####  &&&&&&&&&&&&&&&&",
"&&&&&&  ++++++++++++++++++++########XXXXXX##@@  &&&&&&&&&&&&&&&&",
"&&&&&&  ++++++++++++++++++++########XXXXXX##@@  &&&&&&&&&&&&&&&&",
"&&&&  ++++++++++    ++++++##@@@@@@XXXXXXXX@@##  &&&&&&&&&&&&&&&&",
"&&&&  ++++++++++    ++++++##@@@@@@XXXXXXXX@@##  &&&&&&&&&&&&&&&&",
"&&&&  ++++++    &&&&  @@@@@@@@@@@@%%%%%%%%####  &&&&&&&&&&&&&&&&",
"&&&&  ++++++    &&&&  @@@@@@@@@@@@%%%%%%%%####  &&&&&&&&&&&&&&&&",
"&&&&  ++++  &&&&&&&&&&  @@@@@@@@@@%%%%%%@@##  &&&&        &&&&&&",
"&&&&  ++++  &&&&&&&&&&  @@@@@@@@@@%%%%%%@@##  &&&&        &&&&&&",
"&&&&&&    &&&&&&&&&&&&  @@@@@@@@%%%%%%%%@@XXXX    XXXXXXXX  &&&&",
"&&&&&&    &&&&&&&&&&&&  @@@@@@@@%%%%%%%%@@XXXX    XXXXXXXX  &&&&",
"&&&&&&&&&&&&&&&&&&&&&&  @@@@@@@@%%%%%%@@@@XXXXXXXXXXXXXXXX  &&&&",
"&&&&&&&&&&&&&&&&&&&&&&  @@@@@@@@%%%%%%@@@@XXXXXXXXXXXXXXXX  &&&&",
"&&&&&&&&&&&&&&&&&&&&  oo@@@@@@%%%%%%%%@@XXXXXXXXXXXXXX    &&&&&&",
"&&&&&&&&&&&&&&&&&&&&  oo@@@@@@%%%%%%%%@@XXXXXXXXXXXXXX    &&&&&&",
"&&&&&&&&&&&&&&&&&&&&  oooooooo%%%%%%@@@@  XXXXXXXX    &&&&&&&&&&",
"&&&&&&&&&&&&&&&&&&&&  oooooooo%%%%%%@@@@  XXXXXXXX    &&&&&&&&&&",
"&&&&&&&&&&&&&&&&&&&&  ooooOO$$$$$$oo    &&        &&&&&&&&&&&&&&",
"&&&&&&&&&&&&&&&&&&&&  ooooOO$$$$$$oo    &&        &&&&&&&&&&&&&&",
"&&&&&&&&&&&&&&&&&&  ooooOO$$$$$$$$$$$$    &&&&&&&&&&&&&&&&&&&&&&",
"&&&&&&&&&&&&&&&&&&  ooooOO$$$$$$$$$$$$    &&&&&&&&&&&&&&&&&&&&&&",
"&&&&&&&&&&&&&&&&  ooooooOOOOOO$$$$$$$$$$$$  &&&&&&&&&&&&&&&&&&&&",
"&&&&&&&&&&&&&&&&  ooooooOOOOOO$$$$$$$$$$$$  &&&&&&&&&&&&&&&&&&&&",
"&&&&&&&&&&&&&&&&  ooooooOOOOOOOOOOOO$$$$$$  &&&&&&&&&&&&&&&&&&&&",
"&&&&&&&&&&&&&&&&  ooooooOOOOOOOOOOOO$$$$$$  &&&&&&&&&&&&&&&&&&&&",
"&&&&&&&&&&&&&&  ooooooooooOOOOOOOOOOOOOOOO  &&&&&&&&&&&&&&&&&&&&",
"&&&&&&&&&&&&&&  ooooooooooOOOOOOOOOOOOOOOO  &&&&&&&&&&&&&&&&&&&&",
"&&&&&&&&&&&&  oooooooooo        OOOOOOOOOO  &&&&&&&&&&&&&&&&&&&&",
"&&&&&&&&&&&&  oooooooooo        OOOOOOOOOO  &&&&&&&&&&&&&&&&&&&&",
"&&&&&&&&&&  oooooooooo  &&&&&&  OOOOOOOO  &&&&&&&&&&&&&&&&&&&&&&",
"&&&&&&&&&&  oooooooooo  &&&&&&  OOOOOOOO  &&&&&&&&&&&&&&&&&&&&&&",
"&&&&&&&&  oooooooooo  &&&&&&  OOOOOOOO  &&&&&&&&&&&&&&&&&&&&&&&&",
"&&&&&&&&  oooooooooo  &&&&&&  OOOOOOOO  &&&&&&&&&&&&&&&&&&&&&&&&",
"&&&&&&&&  oooooooo  &&&&&&  %%%%OOOO  &&&&&&&&&&&&&&&&&&&&&&&&&&",
"&&&&&&&&  oooooooo  &&&&&&  %%%%OOOO  &&&&&&&&&&&&&&&&&&&&&&&&&&",
"&&&&&&  oooooooo  &&&&&&  %%%%%%OO  &&&&&&&&&&&&&&&&&&&&&&&&&&&&",
"&&&&&&  oooooooo  &&&&&&  %%%%%%OO  &&&&&&&&&&&&&&&&&&&&&&&&&&&&",
"&&&&  oooooooo  &&&&&&&&  %%%%    &&&&&&&&&&&&&&&&&&&&&&&&&&&&&&",
"&&&&  oooooooo  &&&&&&&&  %%%%    &&&&&&&&&&&&&&&&&&&&&&&&&&&&&&",
"&&  ........  &&&&&&&&&&  %%%%  &&&&&&&&&&&&&&&&&&&&&&&&&&&&&&&&",
"&&  ........  &&&&&&&&&&  %%%%  &&&&&&&&&&&&&&&&&&&&&&&&&&&&&&&&",
"&&  ........  &&&&&&&&&&      &&&&&&&&&&&&&&&&&&&&&&&&&&&&&&&&&&",
"&&  ........  &&&&&&&&&&      &&&&&&&&&&&&&&&&&&&&&&&&&&&&&&&&&&",
"&&&&&&&&&&&&&&&&&&&&&&&&&&&&&&&&&&&&&&&&&&&&&&&&&&&&&&&&&&&&&&&&",
"&&&&&&&&&&&&&&&&&&&&&&&&&&&&&&&&&&&&&&&&&&&&&&&&&&&&&&&&&&&&&&&&"
};
