/* XPM */
static char *result[] = {
/* columns rows colors chars-per-pixel */
"64 64 11 1 ",
"  c black",
". c #38002C",
"X c #683C34",
"o c #222A5C",
"O c #2C5B6D",
"+ c #A36D3E",
"@ c #AB1F65",
"# c #E6336A",
"$ c #158968",
"% c #663B93",
"& c None",
/* pixels */
"&&&&&&&&&&&&&&&&&&&&&&&&&&&&&&&&&&&&&&&&&&    &&&&&&&&&&&&&&&&&&",
"&&&&&&&&&&&&&&&&&&&&&&&&&&&&&&&&&&&&&&&&&&    &&&&&&&&&&&&&&&&&&",
"&&&&&&&&&&&&&&&&&&&&&&&&&&&&&&&&&&        ....  &&&&&&&&&&&&&&&&",
"&&&&&&&&&&&&&&&&&&&&&&&&&&&&&&&&&&        ....  &&&&&&&&&&&&&&&&",
"&&&&&&&&&&&&&&&&&&&&&&&&&&&&&&    ............  &&&&&&&&&&&&&&&&",
"&&&&&&&&&&&&&&&&&&&&&&&&&&&&&&    ............  &&&&&&&&&&&&&&&&",
"&&&&&&&&&&&&&&&&&&&&&&&&&&&&  ................  &&&&&&&&&&&&&&&&",
"&&&&&&&&&&&&&&&&&&&&&&&&&&&&  ................  &&&&&&&&&&&&&&&&",
"&&&&&&&&&&&&&&&&&&&&&&&&&&&&  ....++++....    &&&&&&&&&&&&&&&&&&",
"&&&&&&&&&&&&&&&&&&&&&&&&&&&&  ....++++....    &&&&&&&&&&&&&&&&&&",
"&&&&&&&&&&&&&&&&&&&&&&&&&&&&&&  ++  %%++++  &&&&&&&&&&&&&&&&&&&&",
"&&&&&&&&&&&&&&&&&&&&&&&&&&&&&&  ++  %%++++  &&&&&&&&&&&&&&&&&&&&",
"&&&&&&&&        &&&&&&          ++%%%%%%    &&&&&&&&&&&&&&&&&&&&",
"&&&&&&&&        &&&&&&          ++%%%%%%    &&&&&&&&&&&&&&&&&&&&",
"&&&&&&  ++++++++        ########++++%%        &&&&&&&&&&&&&&&&&&",
"&&&&&&  ++++++++        ########++++%%        &&&&&&&&&&&&&&&&&&",
"&&&&  ++++++++++++++++  ########++++++++####  &&&&&&&&&&&&&&&&&&",
"&&&&  ++++++++++++++++  ########++++++++####  &&&&&&&&&&&&&&&&&&",
"&&  ++++++++++++++++++++@@######++++++++####  &&&&&&&&&&&&&&&&&&",
"&&  ++++++++++++++++++++@@######++++++++####  &&&&&&&&&&&&&&&&&&",
"  ++++++++++++++++++++++########XXXXXXXX##@@  &&&&&&&&&&      &&",
"  ++++++++++++++++++++++########XXXXXXXX##@@  &&&&&&&&&&      &&",
"++++++++      ++++++++++####@@@@XXXXXXXX@@####  &&&&&&  XXXXXX  ",
"++++++++      ++++++++++####@@@@XXXXXXXX@@####  &&&&&&  XXXXXX  ",
"++++++  &&&&&&    ++++####@@@@%%%%%%%%%%######  &&&&  XXXXXXXX  ",
"++++++  &&&&&&    ++++####@@@@%%%%%%%%%%######  &&&&  XXXXXXXX  ",
"++++  &&&&&&&&&&  @@@@@@@@@@@@%%%%%%%%@@####XXXX    XXXXXXXX  &&",
"++++  &&&&&&&&&&  @@@@@@@@@@@@%%%%%%%%@@####XXXX    XXXXXXXX  &&",
"    &&&&&&&&&&&&&&  @@@@@@@@%%%%%%%%%%@@@@XXXXXXXXXXXXXXXX  &&&&",
"    &&&&&&&&&&&&&&  @@@@@@@@%%%%%%%%%%@@@@XXXXXXXXXXXXXXXX  &&&&",
"&&&&&&&&&&&&&&&&&&  @@@@@@@@%%%%%%%%@@@@XXXXXXXXXXXXXXXX  &&&&&&",
"&&&&&&&&&&&&&&&&&&  @@@@@@@@%%%%%%%%@@@@XXXXXXXXXXXXXXXX  &&&&&&",
"&&&&&&&&&&&&&&&&&&  @@@@@@@@%%%%%%@@@@@@XXXXXXXXXXXXXX  &&&&&&&&",
"&&&&&&&&&&&&&&&&&&  @@@@@@@@%%%%%%@@@@@@XXXXXXXXXXXXXX  &&&&&&&&",
"&&&&&&&&&&&&&&&&&&  oo@@@@@@%%%%%%@@@@      XXXXXXXX  &&&&&&&&&&",
"&&&&&&&&&&&&&&&&&&  oo@@@@@@%%%%%%@@@@      XXXXXXXX  &&&&&&&&&&",
"&&&&&&&&&&&&&&&&&&  oooooooooo%%@@@@  &&&&&&        &&&&&&&&&&&&",
"&&&&&&&&&&&&&&&&&&  oooooooooo%%@@@@  &&&&&&        &&&&&&&&&&&&",
"&&&&&&&&&&&&&&&&&&  ooooOO$$$$oo    &&&&&&&&&&&&&&&&&&&&&&&&&&&&",
"&&&&&&&&&&&&&&&&&&  ooooOO$$$$oo    &&&&&&&&&&&&&&&&&&&&&&&&&&&&",
"&&&&&&&&&&&&&&&&&&  ooOO$$$$$$$$$$  &&&&&&&&&&&&&&&&&&&&&&&&&&&&",
"&&&&&&&&&&&&&&&&&&  ooOO$$$$$$$$$$  &&&&&&&&&&&&&&&&&&&&&&&&&&&&",
"&&&&      &&&&&&  ooooOO$$$$$$$$$$$$  &&&&&&&&&&&&&&&&&&&&&&&&&&",
"&&&&      &&&&&&  ooooOO$$$$$$$$$$$$  &&&&&&&&&&&&&&&&&&&&&&&&&&",
"&&  ....oo      ooooooOOOOOO$$$$$$$$$$  &&&&&&&&&&&&&&&&&&&&&&&&",
"&&  ....oo      ooooooOOOOOO$$$$$$$$$$  &&&&&&&&&&&&&&&&&&&&&&&&",
"  ......ooooooooooooooooOOOOOOOO$$$$$$  &&&&&&&&&&&&&&&&&&&&&&&&",
"  ......ooooooooooooooooOOOOOOOO$$$$$$  &&&&&&&&&&&&&&&&&&&&&&&&",
"  ....oooooooooooooooooooo  OOOOOOOOOO  &&&&&&&&&&&&&&&&&&&&&&&&",
"  ....oooooooooooooooooooo  OOOOOOOOOO  &&&&&&&&&&&&&&&&&&&&&&&&",
"  ....    oooooooooooooo  &&  OOOOOOOO  &&&&&&&&&&&&&&&&&&&&&&&&",
"  ....    oooooooooooooo  &&  OOOOOOOO  &&&&&&&&&&&&&&&&&&&&&&&&",
"&&    &&&&    oooooooo  &&&&  OOOOOOOO  &&&&&&&&&&&&&&&&&&&&&&&&",
"&&    &&&&    oooooooo  &&&&  OOOOOOOO  &&&&&&&&&&&&&&&&&&&&&&&&",
"&&&&&&&&&&&&&&        &&&&&&  OOOOOO  &&&&&&&&&&&&&&&&&&&&&&&&&&",
"&&&&&&&&&&&&&&        &&&&&&  OOOOOO  &&&&&&&&&&&&&&&&&&&&&&&&&&",
"&&&&&&&&&&&&&&&&&&&&&&&&&&&&  OOOOOO  &&&&&&&&&&&&&&&&&&&&&&&&&&",
"&&&&&&&&&&&&&&&&&&&&&&&&&&&&  OOOOOO  &&&&&&&&&&&&&&&&&&&&&&&&&&",
"&&&&&&&&&&&&&&&&&&&&&&&&&&&&  OOOOOO  &&&&&&&&&&&&&&&&&&&&&&&&&&",
"&&&&&&&&&&&&&&&&&&&&&&&&&&&&  OOOOOO  &&&&&&&&&&&&&&&&&&&&&&&&&&",
"&&&&&&&&&&&&&&&&&&&&&&&&&&&&  %%%%%%%%  &&&&&&&&&&&&&&&&&&&&&&&&",
"&&&&&&&&&&&&&&&&&&&&&&&&&&&&  %%%%%%%%  &&&&&&&&&&&&&&&&&&&&&&&&",
"&&&&&&&&&&&&&&&&&&&&&&&&&&&&  %%%%%%%%  &&&&&&&&&&&&&&&&&&&&&&&&",
"&&&&&&&&&&&&&&&&&&&&&&&&&&&&  %%%%%%%%  &&&&&&&&&&&&&&&&&&&&&&&&"
};
