/* XPM */
static char *result[] = {
/* columns rows colors chars-per-pixel */
"64 64 11 1 ",
"  c black",
". c #38002C",
"X c #683C34",
"o c #222A5C",
"O c #2C5B6D",
"+ c #A36D3E",
"@ c #AB1F65",
"# c #E6336A",
"$ c #158968",
"% c #663B93",
"& c None",
/* pixels */
"&&&&&&&&&&&&&&&&&&&&&&&&&&&&&&  ......  &&&&&&&&&&&&&&&&&&&&&&&&",
"&&&&&&&&&&&&&&&&&&&&&&&&&&&&&&  ......  &&&&&&&&&&&&&&&&&&&&&&&&",
"&&&&&&&&&&&&&&&&&&&&&&&&&&&&    ......  &&&&&&&&&&&&&&&&&&&&&&&&",
"&&&&&&&&&&&&&&&&&&&&&&&&&&&&    ......  &&&&&&&&&&&&&&&&&&&&&&&&",
"&&&&&&&&&&&&&&&&&&&&&&&&&&  ..........  &&&&&&&&&&&&&&&&&&&&&&&&",
"&&&&&&&&&&&&&&&&&&&&&&&&&&  ..........  &&&&&&&&&&&&&&&&&&&&&&&&",
"&&&&&&&&&&&&&&&&&&&&&&&&  ............  &&&&&&&&&&&&&&&&&&&&&&&&",
"&&&&&&&&&&&&&&&&&&&&&&&&  ............  &&&&&&&&&&&&&&&&&&&&&&&&",
"&&&&&&&&&&&&&&&&&&&&&&&&  ....++++++++  &&&&&&&&&&&&&&&&&&&&&&&&",
"&&&&&&&&&&&&&&&&&&&&&&&&  ....++++++++  &&&&&&&&&&&&&&&&&&&&&&&&",
"&&&&&&&&&&&&&&&&&&&&&&&&&&  ++  %%%%    &&&&&&&&&&&&&&&&&&&&&&&&",
"&&&&&&&&&&&&&&&&&&&&&&&&&&  ++  %%%%    &&&&&&&&&&&&&&&&&&&&&&&&",
"&&&&&&&&&&&&&&&&&&&&        ++  %%%%    &&&&&&&&&&&&&&&&&&&&&&&&",
"&&&&&&&&&&&&&&&&&&&&        ++  %%%%    &&&&&&&&&&&&&&&&&&&&&&&&",
"&&&&&&&&&&&&&&&&&&&&  ########++++++++  &&&&&&&&&&&&&&&&&&&&&&&&",
"&&&&&&&&&&&&&&&&&&&&  ########++++++++  &&&&&&&&&&&&&&&&&&&&&&&&",
"&&&&&&&&&&&&&&&&&&&&&&  ########++++++##  &&&&&&&&&&&&&&&&&&&&&&",
"&&&&&&&&&&&&&&&&&&&&&&  ########++++++##  &&&&&&&&&&&&&&&&&&&&&&",
"&&&&&&&&&&&&&&&&&&      ########XXXXXX##    &&&&&&&&&&&&&&&&&&&&",
"&&&&&&&&&&&&&&&&&&      ########XXXXXX##    &&&&&&&&&&&&&&&&&&&&",
"&&&&&&&&&&&&&&&&  @@########@@##XXXXXX@@####  &&&&&&&&&&&&&&&&&&",
"&&&&&&&&&&&&&&&&  @@########@@##XXXXXX@@####  &&&&&&&&&&&&&&&&&&",
"&&&&&&&&&&&&&&  ++++##########@@%%%%%%######XX  &&&&&&&&&&&&&&&&",
"&&&&&&&&&&&&&&  ++++##########@@%%%%%%######XX  &&&&&&&&&&&&&&&&",
"&&&&&&&&&&&&&&  ++++++########@@%%%%%%####@@XX  &&&&&&&&&&&&&&&&",
"&&&&&&&&&&&&&&  ++++++########@@%%%%%%####@@XX  &&&&&&&&&&&&&&&&",
"&&&&&&&&&&&&&&  ++++++@@@@@@@@@@%%%%%%@@@@@@XX  &&&&&&&&&&&&&&&&",
"&&&&&&&&&&&&&&  ++++++@@@@@@@@@@%%%%%%@@@@@@XX  &&&&&&&&&&&&&&&&",
"&&&&&&&&&&&&  ++++++++@@@@@@@@@@%%%%%%@@@@@@XX  &&&&&&&&&&&&&&&&",
"&&&&&&&&&&&&  ++++++++@@@@@@@@@@%%%%%%@@@@@@XX  &&&&&&&&&&&&&&&&",
"&&&&&&&&&&&&  ++++++++  @@@@@@@@%%%%%%@@@@XX  &&&&&&&&&&&&&&&&&&",
"&&&&&&&&&&&&  ++++++++  @@@@@@@@%%%%%%@@@@XX  &&&&&&&&&&&&&&&&&&",
"&&&&&&&&&&&&  ++++++    @@@@@@@@%%%%%%@@@@XX  &&&&&&&&&&&&&&&&&&",
"&&&&&&&&&&&&  ++++++    @@@@@@@@%%%%%%@@@@XX  &&&&&&&&&&&&&&&&&&",
"&&&&&&&&&&&&  ++++++  &&  @@@@@@%%%%%%@@@@XX  &&&&&&&&&&&&&&&&&&",
"&&&&&&&&&&&&  ++++++  &&  @@@@@@%%%%%%@@@@XX  &&&&&&&&&&&&&&&&&&",
"&&&&&&&&&&&&  ++++++  &&  oooooooooooo    XX  &&&&&&&&&&&&&&&&&&",
"&&&&&&&&&&&&  ++++++  &&  oooooooooooo    XX  &&&&&&&&&&&&&&&&&&",
"&&&&&&&&&&&&  ++++++      oooooooooooo    XX  &&&&&&&&&&&&&&&&&&",
"&&&&&&&&&&&&  ++++++      oooooooooooo    XX  &&&&&&&&&&&&&&&&&&",
"&&&&&&&&&&&&  ++++++    OO$$$$$$OOOOoooooo    &&&&&&&&&&&&&&&&&&",
"&&&&&&&&&&&&  ++++++    OO$$$$$$OOOOoooooo    &&&&&&&&&&&&&&&&&&",
"&&&&&&&&&&&&  ++++++    $$$$$$$$OOOOoooooooo  &&&&&&&&&&&&&&&&&&",
"&&&&&&&&&&&&  ++++++    $$$$$$$$OOOOoooooooo  &&&&&&&&&&&&&&&&&&",
"&&&&&&&&&&&&&&          $$$$$$$$    oooooooo  &&&&&&&&&&&&&&&&&&",
"&&&&&&&&&&&&&&          $$$$$$$$    oooooooo  &&&&&&&&&&&&&&&&&&",
"&&&&&&&&&&&&&&&&&&&&&&  $$$$$$  &&  oooooooo  &&&&&&&&&&&&&&&&&&",
"&&&&&&&&&&&&&&&&&&&&&&  $$$$$$  &&  oooooooo  &&&&&&&&&&&&&&&&&&",
"&&&&&&&&&&&&&&&&&&&&  $$$$$$$$  &&  oooooooo  &&&&&&&&&&&&&&&&&&",
"&&&&&&&&&&&&&&&&&&&&  $$$$$$$$  &&  oooooooo  &&&&&&&&&&&&&&&&&&",
"&&&&&&&&&&&&&&&&&&&&  $$$$$$OO  &&&&  oooooo  &&&&&&&&&&&&&&&&&&",
"&&&&&&&&&&&&&&&&&&&&  $$$$$$OO  &&&&  oooooo  &&&&&&&&&&&&&&&&&&",
"&&&&&&&&&&&&&&&&&&&&  $$$$$$  &&&&&&  oooooo  &&&&&&&&&&&&&&&&&&",
"&&&&&&&&&&&&&&&&&&&&  $$$$$$  &&&&&&  oooooo  &&&&&&&&&&&&&&&&&&",
"&&&&&&&&&&&&&&&&&&&&  OO$$$$  &&&&&&  oooooooo  &&&&&&&&&&&&&&&&",
"&&&&&&&&&&&&&&&&&&&&  OO$$$$  &&&&&&  oooooooo  &&&&&&&&&&&&&&&&",
"&&&&&&&&&&&&&&&&&&  OOOOOOOO  &&&&&&&&  oooooo  &&&&&&&&&&&&&&&&",
"&&&&&&&&&&&&&&&&&&  OOOOOOOO  &&&&&&&&  oooooo  &&&&&&&&&&&&&&&&",
"&&&&&&&&&&&&&&&&&&  OOOOOO  &&&&&&&&&&  oooooo  &&&&&&&&&&&&&&&&",
"&&&&&&&&&&&&&&&&&&  OOOOOO  &&&&&&&&&&  oooooo  &&&&&&&&&&&&&&&&",
"&&&&&&&&&&&&&&&&&&  OOOOOO  &&&&&&&&&&  oooooo  &&&&&&&&&&&&&&&&",
"&&&&&&&&&&&&&&&&&&  OOOOOO  &&&&&&&&&&  oooooo  &&&&&&&&&&&&&&&&",
"&&&&&&&&&&&&&&&&  %%%%%%%%  &&&&&&&&&&  ........  &&&&&&&&&&&&&&",
"&&&&&&&&&&&&&&&&  %%%%%%%%  &&&&&&&&&&  ........  &&&&&&&&&&&&&&"
};
