/* XPM */
static char *result[] = {
/* columns rows colors chars-per-pixel */
"64 64 9 1 ",
"  c black",
". c #38002C",
"X c #683C34",
"o c #222A5C",
"O c #2C5B6D",
"+ c #A36D3E",
"@ c #AB1F65",
"# c #E6336A",
"$ c None",
/* pixels */
"$$$$$$$$$$$$$$$$$$$$$$$$  ..........  $$$$$$$$$$$$$$$$$$$$$$$$$$",
"$$$$$$$$$$$$$$$$$$$$$$$$  ..........  $$$$$$$$$$$$$$$$$$$$$$$$$$",
"$$$$$$$$$$$$$$$$$$$$$$  ..............  $$$$$$$$$$$$$$$$$$$$$$$$",
"$$$$$$$$$$$$$$$$$$$$$$  ..............  $$$$$$$$$$$$$$$$$$$$$$$$",
"$$$$$$$$$$$$$$      $$  ..............  $$$$$$$$$$$$$$$$$$$$$$$$",
"$$$$$$$$$$$$$$      $$  ..............  $$$$$$$$$$$$$$$$$$$$$$$$",
"$$$$$$$$$$$$  XXXXXX  $$  ..........  $$        $$$$$$$$$$$$$$$$",
"$$$$$$$$$$$$  XXXXXX  $$  ..........  $$        $$$$$$$$$$$$$$$$",
"$$$$$$$$$$$$  XXXXXX      ..........      XXXXXX  $$$$$$$$$$$$$$",
"$$$$$$$$$$$$  XXXXXX      ..........      XXXXXX  $$$$$$$$$$$$$$",
"$$$$$$$$$$  XXXXXXXX    ##..........##    XXXXXX  $$$$$$$$$$$$$$",
"$$$$$$$$$$  XXXXXXXX    ##..........##    XXXXXX  $$$$$$$$$$$$$$",
"$$$$$$$$$$  XXXXXXXX    ##############    XXXXXXXX  $$$$$$$$$$$$",
"$$$$$$$$$$  XXXXXXXX    ##############    XXXXXXXX  $$$$$$$$$$$$",
"$$$$$$$$$$  XXXXXX      ##############    XXXXXXXX  $$$$$$$$$$$$",
"$$$$$$$$$$  XXXXXX      ##############    XXXXXXXX  $$$$$$$$$$$$",
"$$$$$$$$  XX++++++######@@##########@@######XXXXXX  $$$$$$$$$$$$",
"$$$$$$$$  XX++++++######@@##########@@######XXXXXX  $$$$$$$$$$$$",
"$$$$$$$$  ++++++++##########@@@@@@##########++++++XX  $$$$$$$$$$",
"$$$$$$$$  ++++++++##########@@@@@@##########++++++XX  $$$$$$$$$$",
"$$$$$$$$  ++++++++@@######################@@++++++XX  $$$$$$$$$$",
"$$$$$$$$  ++++++++@@######################@@++++++XX  $$$$$$$$$$",
"$$$$$$$$  ++++++++++######################++++++++++  $$$$$$$$$$",
"$$$$$$$$  ++++++++++######################++++++++++  $$$$$$$$$$",
"$$$$$$$$  ++++++++++@@##################@@++++++++++  $$$$$$$$$$",
"$$$$$$$$  ++++++++++@@##################@@++++++++++  $$$$$$$$$$",
"$$$$$$$$  ++++++++++@@@@@@##########@@@@@@++++++++++  $$$$$$$$$$",
"$$$$$$$$  ++++++++++@@@@@@##########@@@@@@++++++++++  $$$$$$$$$$",
"$$$$$$$$$$  ++++++    @@@@@@@@@@@@@@@@@@    ++++++  $$$$$$$$$$$$",
"$$$$$$$$$$  ++++++    @@@@@@@@@@@@@@@@@@    ++++++  $$$$$$$$$$$$",
"$$$$$$$$$$$$      $$  @@@@@@@@@@@@@@@@@@  $$      $$$$$$$$$$$$$$",
"$$$$$$$$$$$$      $$  @@@@@@@@@@@@@@@@@@  $$      $$$$$$$$$$$$$$",
"$$$$$$$$$$$$$$$$$$$$    oooooooooooooo    $$$$$$$$$$$$$$$$$$$$$$",
"$$$$$$$$$$$$$$$$$$$$    oooooooooooooo    $$$$$$$$$$$$$$$$$$$$$$",
"$$$$$$$$$$$$$$$$$$$$    oooooooooooooo    $$$$$$$$$$$$$$$$$$$$$$",
"$$$$$$$$$$$$$$$$$$$$    oooooooooooooo    $$$$$$$$$$$$$$$$$$$$$$",
"$$$$$$$$$$$$$$$$$$$$  OOOOOOOOOOOOOOOOOO  $$$$$$$$$$$$$$$$$$$$$$",
"$$$$$$$$$$$$$$$$$$$$  OOOOOOOOOOOOOOOOOO  $$$$$$$$$$$$$$$$$$$$$$",
"$$$$$$$$$$$$$$$$$$$$  OOOOOOOOOOOOOOOOOO  $$$$$$$$$$$$$$$$$$$$$$",
"$$$$$$$$$$$$$$$$$$$$  OOOOOOOOOOOOOOOOOO  $$$$$$$$$$$$$$$$$$$$$$",
"$$$$$$$$$$$$$$$$$$  ooOOOOOOOOOOOOOOOOOOoo  $$$$$$$$$$$$$$$$$$$$",
"$$$$$$$$$$$$$$$$$$  ooOOOOOOOOOOOOOOOOOOoo  $$$$$$$$$$$$$$$$$$$$",
"$$$$$$$$$$$$$$$$$$  OOOOOOOO      OOOOOOOO  $$$$$$$$$$$$$$$$$$$$",
"$$$$$$$$$$$$$$$$$$  OOOOOOOO      OOOOOOOO  $$$$$$$$$$$$$$$$$$$$",
"$$$$$$$$$$$$$$$$$$  OOOOOOOO  $$  OOOOOOOO  $$$$$$$$$$$$$$$$$$$$",
"$$$$$$$$$$$$$$$$$$  OOOOOOOO  $$  OOOOOOOO  $$$$$$$$$$$$$$$$$$$$",
"$$$$$$$$$$$$$$$$$$  OOOOOO  $$$$$$  OOOOOO  $$$$$$$$$$$$$$$$$$$$",
"$$$$$$$$$$$$$$$$$$  OOOOOO  $$$$$$  OOOOOO  $$$$$$$$$$$$$$$$$$$$",
"$$$$$$$$$$$$$$$$$$  ooOOOO  $$$$$$  OOOOoo  $$$$$$$$$$$$$$$$$$$$",
"$$$$$$$$$$$$$$$$$$  ooOOOO  $$$$$$  OOOOoo  $$$$$$$$$$$$$$$$$$$$",
"$$$$$$$$$$$$$$$$  oooooooo  $$$$$$  oooooooo  $$$$$$$$$$$$$$$$$$",
"$$$$$$$$$$$$$$$$  oooooooo  $$$$$$  oooooooo  $$$$$$$$$$$$$$$$$$",
"$$$$$$$$$$$$$$$$  oooooo  $$$$$$$$$$  oooooo  $$$$$$$$$$$$$$$$$$",
"$$$$$$$$$$$$$$$$  oooooo  $$$$$$$$$$  oooooo  $$$$$$$$$$$$$$$$$$",
"$$$$$$$$$$$$$$$$  oooooo  $$$$$$$$$$  oooooo  $$$$$$$$$$$$$$$$$$",
"$$$$$$$$$$$$$$$$  oooooo  $$$$$$$$$$  oooooo  $$$$$$$$$$$$$$$$$$",
"$$$$$$$$$$$$$$$$  oooooo  $$$$$$$$$$  oooooo  $$$$$$$$$$$$$$$$$$",
"$$$$$$$$$$$$$$$$  oooooo  $$$$$$$$$$  oooooo  $$$$$$$$$$$$$$$$$$",
"$$$$$$$$$$$$$$$$  oooooo  $$$$$$$$$$  oooooo  $$$$$$$$$$$$$$$$$$",
"$$$$$$$$$$$$$$$$  oooooo  $$$$$$$$$$  oooooo  $$$$$$$$$$$$$$$$$$",
"$$$$$$$$$$$$$$$$  ......  $$$$$$$$$$  ......  $$$$$$$$$$$$$$$$$$",
"$$$$$$$$$$$$$$$$  ......  $$$$$$$$$$  ......  $$$$$$$$$$$$$$$$$$",
"$$$$$$$$$$$$$$  ........  $$$$$$$$$$  ........  $$$$$$$$$$$$$$$$",
"$$$$$$$$$$$$$$  ........  $$$$$$$$$$  ........  $$$$$$$$$$$$$$$$"
};
