/* XPM */
static char *result[] = {
/* columns rows colors chars-per-pixel */
"64 64 10 1 ",
"  c black",
". c gray20",
"X c gray33",
"o c #795548",
"O c #FF5722",
"+ c #FF9800",
"@ c #FFEB3B",
"# c gray62",
"$ c white",
"% c None",
/* pixels */
"%%%%%%%%%%%%%%%%%%%%%%%%%%%%%%%%%%%%%%%%%%%%%%%%%%%%%%%%%%%%%%%%",
"%%%%%%%%%%%%%%%%%%%%%%%%%%%%%%%%%%%%%%%%%%%%%%%%%%%%%%%%%%%%%%%%",
"%%%%%%%%%%%%%%%%%%%%%%%%%%%%%%%%%%%%%%%%%%%%%%%%%%%%%%%%%%%%%%%%",
"%%%%%%%%%%%%%%%%%%%%%%%%%%%%%%%%%%%%%%%%%%%%%%%%%%%%%%%%%%%%%%%%",
"%%%%%%%%%%%%%%%%%%%%%%%%%%%%%%%%%%%%%%%%%%%%%%%%%%%%%%%%%%%%%%%%",
"%%%%%%%%%%%%%%%%%%%%%%%%%%%%%%%%%%%%%%%%%%%%%%%%%%%%%%%%%%%%%%%%",
"%%%%%%%%%%%%%%%%%%%%%%%%%%%%%%%%%%%%%%%%%%%%%%%%%%%%%%%%%%%%%%%%",
"%%%%%%%%%%%%%%%%%%%%%%%%%%%%%%%%%%%%%%%%%%%%%%%%%%%%%%%%%%%%%%%%",
"%%%%%%%%%%%%%%%%%%%%%%%%%%%%%%%%%%%%%%%%%%%%%%%%%%%%%%%%%%%%%%%%",
"%%%%%%%%%%%%%%%%%%%%%%%%%%%%%%%%%%%%%%%%%%%%%%%%%%%%%%%%%%%%%%%%",
"%%%%%%%%%%%%%%%%%%%%%%%%%%%%%%%%%%%%%%%%%%%%%%%%%%%%%%%%%%%%%%%%",
"%%%%%%%%%%%%%%%%%%%%%%%%%%%%%%%%%%%%%%%%%%%%%%%%%%%%%%%%%%%%%%%%",
"%%%%%%%%%%%%%%%%%%%%%%%%%%%%%%%%%%%%%%%%%%%%%%%%%%%%%%%%%%%%%%%%",
"%%%%%%%%%%%%%%%%%%%%%%%%%%%%%%%%%%%%%%%%%%%%%%%%%%%%%%%%%%%%%%%%",
"%%%%%%%%%%%%%%%%%%%%%%%%%%%%%%%%%%%%%%%%%%%%%%%%%%%%%%%%%%%%%%%%",
"%%%%%%%%%%%%%%%%%%%%%%%%%%%%%%%%%%%%%%%%%%%%%%%%%%%%%%%%%%%%%%%%",
"%%%%%%%%%%%%%%%%%%%%%%%%%%%%%%%%%%%%%%%%%%%%%%%%%%%%%%%%%%%%%%%%",
"%%%%%%%%%%%%%%%%%%%%%%%%%%%%%%%%%%%%%%%%%%%%%%%%%%%%%%%%%%%%%%%%",
"%%%%%%%%%%%%%%%%%%%%%%%%%%%%%%%%%%%%%%%%%%%%%%%%%%%%%%%%%%%%%%%%",
"%%%%%%%%%%%%%%%%%%%%%%%%%%%%%%%%%%%%%%%%%%%%%%%%%%%%%%%%%%%%%%%%",
"%%%%%%%                                                 %%%%%%%%",
"%%%%%%                                                   %%%%%%%",
"%%%%%%  ...............................................  %%%%%%%",
"%%%%%%  ...............................................  %%%%%%%",
"%%%%%%  ..                                           ..  %%%%%%%",
"%%%%%%  ..                                           ..  %%%%%%%",
"%%%%%%  ..  $$$$$$$$$$$$$$$$$$$$$$$$$$$$$$$$$$$$$$$  ..  %%%%%%%",
"%%%%%%  ..  @$$$$$$$$$$$$$$$$$$$$$$$$$$$$$$$$$$$$$$  ..  %%%%%%%",
"%%%%%%  ..  @@@$$                            $$$$$$  ..  %%%%%%%",
"%%%%%%  ..  @@@@$                            $$$$$$  ..  %%%%%%%",
"%%%%%%  ..  +@@@@   #$#   $oo$$$$$ o   #$#   $$$$$$  ..  %%%%%%%",
"%%%%%%  ..  +++@@  #$$$#  $$oo$$$ o%  #$$$#  @@@@@@  ..  %%%%%%%",
"%%%%%%  ..  ++++@   #$#   $oo$$$$$ o   #$#   @@@@@@  ..  %%%%%%%",
"%%%%%%  ..  OO+++                            ++++++  ..  %%%%%%%",
"%%%%%%  ..  OOO++                            ++++++  ..  %%%%%%%",
"%%%%%%  ..  OOOOOOOOOOOOOOOOOOOOOOOOOOOOOOOOOOOOOOO  ..  %%%%%%%",
"%%%%%%  ..          OOOOOOOOOOOOOOOOOOOOOOO          ..  %%%%%%%",
"%%%%%%  ..                                           ..  %%%%%%%",
"%%%%%%  ..........                           ..........  %%%%%%%",
"%%%%%%  ......... XXXXXXXXXXXXXXXXXXXXXXXXXXX .........  %%%%%%%",
"%%%%%%  ........ XXXXXX   XXXXXXXXXXX   XXXXXX ........  %%%%%%%",
"%%%%%%  ....... XX   XX % XXXXXXXXXXX % XX   XX .......  %%%%%%%",
"%%%%%%  ...... XX %%% X   XXXXXXXXXXX   X %%% XX ......  %%%%%%%",
"%%%%%%  ..... XXXX   XXXXXXXXXXXXXXXXXXXXX   XXXX .....  %%%%%%%",
"%%%%%%  .... XXXXXXXXXXXXXXXXXXXXXXXXXXXXXXXXXXXXX ....  %%%%%%%",
"%%%%%%                                                   %%%%%%%",
"%%%%%%%                                                 %%%%%%%%",
"%%%%%%%%%%%%%%%%%%%%%%%%%%%%%%%%%%%%%%%%%%%%%%%%%%%%%%%%%%%%%%%%",
"%%%%%%%%%%%%%%%%%%%%%%%%%%%%%%%%%%%%%%%%%%%%%%%%%%%%%%%%%%%%%%%%",
"%%%%%%%%%%%%%%%%%%%%%%%%%%%%%%%%%%%%%%%%%%%%%%%%%%%%%%%%%%%%%%%%",
"%%%%%%%%%%%%%%%%%%%%%%%%%%%%%%%%%%%%%%%%%%%%%%%%%%%%%%%%%%%%%%%%",
"%%%%%%%%%%%%%%%%%%%%%%%%%%%%%%%%%%%%%%%%%%%%%%%%%%%%%%%%%%%%%%%%",
"%%%%%%%%%%%%%%%%%%%%%%%%%%%%%%%%%%%%%%%%%%%%%%%%%%%%%%%%%%%%%%%%",
"%%%%%%%%%%%%%%%%%%%%%%%%%%%%%%%%%%%%%%%%%%%%%%%%%%%%%%%%%%%%%%%%",
"%%%%%%%%%%%%%%%%%%%%%%%%%%%%%%%%%%%%%%%%%%%%%%%%%%%%%%%%%%%%%%%%",
"%%%%%%%%%%%%%%%%%%%%%%%%%%%%%%%%%%%%%%%%%%%%%%%%%%%%%%%%%%%%%%%%",
"%%%%%%%%%%%%%%%%%%%%%%%%%%%%%%%%%%%%%%%%%%%%%%%%%%%%%%%%%%%%%%%%",
"%%%%%%%%%%%%%%%%%%%%%%%%%%%%%%%%%%%%%%%%%%%%%%%%%%%%%%%%%%%%%%%%",
"%%%%%%%%%%%%%%%%%%%%%%%%%%%%%%%%%%%%%%%%%%%%%%%%%%%%%%%%%%%%%%%%",
"%%%%%%%%%%%%%%%%%%%%%%%%%%%%%%%%%%%%%%%%%%%%%%%%%%%%%%%%%%%%%%%%",
"%%%%%%%%%%%%%%%%%%%%%%%%%%%%%%%%%%%%%%%%%%%%%%%%%%%%%%%%%%%%%%%%",
"%%%%%%%%%%%%%%%%%%%%%%%%%%%%%%%%%%%%%%%%%%%%%%%%%%%%%%%%%%%%%%%%",
"%%%%%%%%%%%%%%%%%%%%%%%%%%%%%%%%%%%%%%%%%%%%%%%%%%%%%%%%%%%%%%%%",
"%%%%%%%%%%%%%%%%%%%%%%%%%%%%%%%%%%%%%%%%%%%%%%%%%%%%%%%%%%%%%%%%"
};
