/* XPM */
static char *result[] = {
/* columns rows colors chars-per-pixel */
"64 64 14 1 ",
"  c black",
". c #222A5C",
"X c #37446E",
"o c #D22F1E",
"O c #800C53",
"+ c #AB1F65",
"@ c #E6336A",
"# c #FF8142",
"$ c #CCAC68",
"% c #566A89",
"& c #F96B80",
"* c #FFDBA5",
"= c #CCE2E1",
"- c None",
/* pixels */
"-------------------  @@@@@@  -----------------------------------",
"-------------------  @@@@@@  -----------------------------------",
"-----------------  @@@@@@        -------------------------------",
"-----------------  @@@@@@        -------------------------------",
"-----------------  @@@@&&&&@@@@@@  -----------------------------",
"-----------------  @@@@&&&&@@@@@@  -----------------------------",
"---------------  @@@@@@&&&&&&@@@@@@  ---------------------------",
"---------------  @@@@@@&&&&&&@@@@@@  ---------------------------",
"---------------  @@@@**@@&&&&@@      ---------------------------",
"---------------  @@@@**@@&&&&@@      ---------------------------",
"-------------  ++++****@@@@@@@@@@  -----------------------------",
"-------------  ++++****@@@@@@@@@@  -----------------------------",
"-------------    ++******@@@@@@@@@@  ---------------------------",
"-------------    ++******@@@@@@@@@@  ---------------------------",
"---------------  ++********@@@@  @@  ---------------------------",
"---------------  ++********@@@@  @@  ---------------------------",
"---------------  ++********@@@@@@    ---------------------------",
"---------------  ++********@@@@@@    ---------------------------",
"---------------    ********@@@@@@  -----------------------------",
"---------------    ********@@@@@@  -----------------------------",
"-----------------  %%%%%%%%%%@@%%@@  ---------------------------",
"-----------------  %%%%%%%%%%@@%%@@  ---------------------------",
"-------------      %%%%%%%%@@%%%%%%@@  -------------------------",
"-------------      %%%%%%%%@@%%%%%%@@  -------------------------",
"-------------  ****%%%%%%%%%%====      -------------------------",
"-------------  ****%%%%%%%%%%====      -------------------------",
"-------------  ****%%%%%%%%%%%%XXOOOO  -------------------------",
"-------------  ****%%%%%%%%%%%%XXOOOO  -------------------------",
"---------------  oooo%%==%%%%%%  OO$$$$  -----------------------",
"---------------  oooo%%==%%%%%%  OO$$$$  -----------------------",
"---------------  oooo%%%%%%%%XX    $$$$  -----------------------",
"---------------  oooo%%%%%%%%XX    $$$$  -----------------------",
"-----------------  %%%%%%%%XXXX  --    -------------------------",
"-----------------  %%%%%%%%XXXX  --    -------------------------",
"-------------------  XXXXXXXXXXXX  -----------------------------",
"-------------------  XXXXXXXXXXXX  -----------------------------",
"-------------------  XXXXXXXXXXXX  -----------------------------",
"-------------------  XXXXXXXXXXXX  -----------------------------",
"-------------------  XXXXXXXXXXXX  -----------------------------",
"-------------------  XXXXXXXXXXXX  -----------------------------",
"-------------------  OOOOoooo####oo  ---------------------------",
"-------------------  OOOOoooo####oo  ---------------------------",
"-----------------  OOOOOO  oo######  ----      -----------------",
"-----------------  OOOOOO  oo######  ----      -----------------",
"---------------  OOOOOO  --  oo######    ......  ---------------",
"---------------  OOOOOO  --  oo######    ......  ---------------",
"---------------  OOOOOO  ----  oo####oooooo......  -------------",
"---------------  OOOOOO  ----  oo####oooooo......  -------------",
"-------------  OOOOOO  --------  oooooooooooo....  -------------",
"-------------  OOOOOO  --------  oooooooooooo....  -------------",
"-------------  OOOOOO  ----------  oooooo        ---------------",
"-------------  OOOOOO  ----------  oooooo        ---------------",
"-------------  OOOOOO  ------------      -----------------------",
"-------------  OOOOOO  ------------      -----------------------",
"---------------  OOOO  -----------------------------------------",
"---------------  OOOO  -----------------------------------------",
"---------------  OOOOOO  ---------------------------------------",
"---------------  OOOOOO  ---------------------------------------",
"---------------  OOOOOO  ---------------------------------------",
"---------------  OOOOOO  ---------------------------------------",
"-------------            ---------------------------------------",
"-------------            ---------------------------------------",
"-------------            ---------------------------------------",
"-------------            ---------------------------------------"
};
