/* XPM */
static char *result[] = {
/* columns rows colors chars-per-pixel */
"64 64 14 1 ",
"  c black",
". c #222A5C",
"X c #37446E",
"o c #D22F1E",
"O c #800C53",
"+ c #AB1F65",
"@ c #E6336A",
"# c #FF8142",
"$ c #CCAC68",
"% c #566A89",
"& c #F96B80",
"* c #FFDBA5",
"= c #CCE2E1",
"- c None",
/* pixels */
"-------------------------    @@  -------------------------------",
"-------------------------    @@  -------------------------------",
"-----------------------  @@@@  ---------------------------------",
"-----------------------  @@@@  ---------------------------------",
"---------------------  @@@@@@            -----------------------",
"---------------------  @@@@@@            -----------------------",
"---------------------  @@@@&&&&@@@@@@@@  -----------------------",
"---------------------  @@@@&&&&@@@@@@@@  -----------------------",
"-------------------  @@@@@@&&&&&&@@@@  -------------------------",
"-------------------  @@@@@@&&&&&&@@@@  -------------------------",
"-----------------    @@@@**@@&&&&@@  ---------------------------",
"-----------------    @@@@**@@&&&&@@  ---------------------------",
"-----------------  ++++****@@@@@@@@@@  -------------------------",
"-----------------  ++++****@@@@@@@@@@  -------------------------",
"-------------------  ++******@@@@@@@@@@  -----------------------",
"-------------------  ++******@@@@@@@@@@  -----------------------",
"-------------------  ++********@@@@      -----------------------",
"-------------------  ++********@@@@      -----------------------",
"-------------------  ++********@@@@@@  -------------------------",
"-------------------  ++********@@@@@@  -------------------------",
"-------------------    ********@@@@@@  -------------------------",
"-------------------    ********@@@@@@  -------------------------",
"-------------------  XX%%%%%%%%%%@@%%@@  -----------------------",
"-------------------  XX%%%%%%%%%%@@%%@@  -----------------------",
"-------------------  %%%%%%%%%%%%@@%%%%@@  ---------------------",
"-------------------  %%%%%%%%%%%%@@%%%%@@  ---------------------",
"-----------------  %%%%%%%%%%%%%%%%%%%%==  ---------------------",
"-----------------  %%%%%%%%%%%%%%%%%%%%==  ---------------------",
"-----------------  %%%%%%%%%%%%%%%%====%%  ---------------------",
"-----------------  %%%%%%%%%%%%%%%%====%%  ---------------------",
"-----------------  ==%%%%%%%%%%====%%%%%%  ---------------------",
"-----------------  ==%%%%%%%%%%====%%%%%%  ---------------------",
"-----------------  XX==%%%%====XXXX%%%%%%%%  -------------------",
"-----------------  XX==%%%%====XXXX%%%%%%%%  -------------------",
"-------------------  XX====XXXXXX%%%%%%%%%%  -------------------",
"-------------------  XX====XXXXXX%%%%%%%%%%  -------------------",
"-------------------  OOOOXXXXXXXXoooooo%%%%%%  -----------------",
"-------------------  OOOOXXXXXXXXoooooo%%%%%%  -----------------",
"-------------------  OOOOXXXXXXoooooooooooooo  -----------------",
"-------------------  OOOOXXXXXXoooooooooooooo  -----------------",
"-----------------  $$$$$$OOOO******oooooooooo  -----------------",
"-----------------  $$$$$$OOOO******oooooooooo  -----------------",
"-----------------  $$$$$$OOOO**************  -------------------",
"-----------------  $$$$$$OOOO**************  -------------------",
"-------------------      OOOOoo######      ---------------------",
"-------------------      OOOOoo######      ---------------------",
"-------------------------  OOOO######oo    ---------------------",
"-------------------------  OOOO######oo    ---------------------",
"-------------------------  OOOOoo######      -------------------",
"-------------------------  OOOOoo######      -------------------",
"-------------------------  OOOOOO######      -------------------",
"-------------------------  OOOOOO######      -------------------",
"---------------------------  OOOOoo####oo    -------------------",
"---------------------------  OOOOoo####oo    -------------------",
"-----------------------------    OO####oo  ---------------------",
"-----------------------------    OO####oo  ---------------------",
"---------------------------------  oooooooo  -------------------",
"---------------------------------  oooooooo  -------------------",
"---------------------------------  oooooooo  -------------------",
"---------------------------------  oooooooo  -------------------",
"-------------------------------  ..........  -------------------",
"-------------------------------  ..........  -------------------",
"-------------------------------  ..........  -------------------",
"-------------------------------  ..........  -------------------"
};
