/* XPM */
static char *result[] = {
/* columns rows colors chars-per-pixel */
"64 64 14 1 ",
"  c black",
". c #222A5C",
"X c #37446E",
"o c #D22F1E",
"O c #800C53",
"+ c #AB1F65",
"@ c #E6336A",
"# c #FF8142",
"$ c #CCAC68",
"% c #566A89",
"& c #F96B80",
"* c #FFDBA5",
"= c #CCE2E1",
"- c None",
/* pixels */
"------------------------------        --------------------------",
"----------------------------  @@@@@@@@  ------------------------",
"----------------------------  @@@@@@@@  ------------------------",
"--------------------------  @@@@&&&&@@@@  ----------------------",
"--------------------------  @@@@&&&&@@@@  ----------------------",
"------------------------  @@@@&&&&&&@@@@@@  --------------------",
"------------------------  @@@@&&&&&&@@@@@@  --------------------",
"----------------------  @@  @@&&&&@@**@@@@  --------------------",
"----------------------  @@  @@&&&&@@**@@@@  --------------------",
"----------------------    @@@@@@@@@@****++  --------------------",
"----------------------    @@@@@@@@@@****++  --------------------",
"------------------------  @@@@@@@@******++++  ------------------",
"------------------------  @@@@@@@@******++++  ------------------",
"----------------------  @@@@@@@@********++    ------------------",
"----------------------  @@@@@@@@********++    ------------------",
"----------------------  @@@@@@@@********++  --------------------",
"----------------------  @@@@@@@@********++  --------------------",
"----------------------    @@@@@@********    --------------------",
"----------------------    @@@@@@********    --------------------",
"----------------------  @@%%@@%%%%%%%%%%XX  --------------------",
"----------------------  @@%%@@%%%%%%%%%%XX  --------------------",
"------------------    ==%%%%@@%%%%%%%%%%%%  --------------------",
"------------------    ==%%%%@@%%%%%%%%%%%%  --------------------",
"----------------  %%%%%%==%%%%%%%%%%%%%%%%%%  ------------------",
"----------------  %%%%%%==%%%%%%%%%%%%%%%%%%  ------------------",
"--------------  %%%%%%%%%%==%%%%%%%%%%%%%%%%  ------------------",
"--------------  %%%%%%%%%%==%%%%%%%%%%%%%%%%  ------------------",
"------------  %%%%%%        ====%%%%%%%%%%==  ------------------",
"------------  %%%%%%        ====%%%%%%%%%%==  ------------------",
"------------  %%%%  ------  XXXX====%%%%==  --------------------",
"------------  %%%%  ------  XXXX====%%%%==  --------------------",
"------------  oooo  ------  XXXXXXXX====XX  --------------------",
"------------  oooo  ------  XXXXXXXX====XX  --------------------",
"------------  oooo  ------  XXXXXXXXXXXXXXXX      --------------",
"------------  oooo  ------  XXXXXXXXXXXXXXXX      --------------",
"--------------  ****  --  XXXXXXXXXXXX  XXOOOO$$$$  ------------",
"--------------  ****  --  XXXXXXXXXXXX  XXOOOO$$$$  ------------",
"--------------  ****  --  OOOOOOoo####    OOOO$$$$  ------------",
"--------------  ****  --  OOOOOOoo####    OOOO$$$$  ------------",
"----------------    --  OOOOOOoo##########        --------------",
"----------------    --  OOOOOOoo##########        --------------",
"----------------------  OOOOOOoooo##########  ------------------",
"----------------------  OOOOOOoooo##########  ------------------",
"--------------------  OOOOOOOO    oooo######  ------------------",
"--------------------  OOOOOOOO    oooo######  ------------------",
"--------------------  OOOOOO  ----  oooooooo  ------------------",
"--------------------  OOOOOO  ----  oooooooo  ------------------",
"------------------  OOOOOOOO  --  oooooooo  --------------------",
"------------------  OOOOOOOO  --  oooooooo  --------------------",
"------------------  OOOOOO  --  oooooooo  ----------------------",
"------------------  OOOOOO  --  oooooooo  ----------------------",
"----------------  OOOOOOOO  --  ..oooo  ------------------------",
"----------------  OOOOOOOO  --  ..oooo  ------------------------",
"--------------  OOOOOOOO  ----  ....  --------------------------",
"--------------  OOOOOOOO  ----  ....  --------------------------",
"------------  OOOOOOOO  ------  ....  --------------------------",
"------------  OOOOOOOO  ------  ....  --------------------------",
"------------  OOOOOO  --------  ....  --------------------------",
"------------  OOOOOO  --------  ....  --------------------------",
"------------            ------      ----------------------------",
"------------            ------      ----------------------------",
"------------            ----------------------------------------",
"------------            ----------------------------------------",
"----------------------------------------------------------------"
};
