/* XPM */
static char *result[] = {
/* columns rows colors chars-per-pixel */
"64 64 13 1 ",
"  c black",
". c #222A5C",
"X c #37446E",
"o c #D22F1E",
"O c #800C53",
"+ c #AB1F65",
"@ c #E6336A",
"# c #FF8142",
"$ c #566A89",
"% c #F96B80",
"& c #FFDBA5",
"* c #CCE2E1",
"= c None",
/* pixels */
"===================================        =====================",
"===================================        =====================",
"=================================  @@@@@@@@  ===================",
"=================================  @@@@@@@@  ===================",
"===============================  @@@@%%%%@@@@  =================",
"===============================  @@@@%%%%@@@@  =================",
"=============================  @@@@%%%%%%@@@@@@  ===============",
"=============================  @@@@%%%%%%@@@@@@  ===============",
"===========================  @@  @@%%%%@@&&@@@@  ===============",
"===========================  @@  @@%%%%@@&&@@@@  ===============",
"===========================    @@@@@@@@@@&&&&++  ===============",
"===========================    @@@@@@@@@@&&&&++  ===============",
"=============================  @@@@@@@@&&&&&&++++  =============",
"=============================  @@@@@@@@&&&&&&++++  =============",
"===========================  @@@@@@@@&&&&&&&&++    =============",
"===========================  @@@@@@@@&&&&&&&&++    =============",
"===========================  @@@@@@@@&&&&&&&&++  ===============",
"===========================  @@@@@@@@&&&&&&&&++  ===============",
"===========================    @@@@@@&&&&&&&&    ===============",
"===========================    @@@@@@&&&&&&&&    ===============",
"===========================  @@$$@@$$$$$$$$$$XX  ===============",
"===========================  @@$$@@$$$$$$$$$$XX  ===============",
"=========================  @@$$$$$$@@$$$$$$$$$$  ===============",
"=========================  @@$$$$$$@@$$$$$$$$$$  ===============",
"=========================    **$$$$$$$$$$$$$$$$  ===============",
"=========================    **$$$$$$$$$$$$$$$$  ===============",
"===========================  $$****$$$$$$$$$$$$  ===============",
"===========================  $$****$$$$$$$$$$$$  ===============",
"===========================  $$$$XX****$$$$$$$$**  =============",
"===========================  $$$$XX****$$$$$$$$**  =============",
"===========================  $$$$$$XXXX****$$$$**  =============",
"===========================  $$$$$$XXXX****$$$$**  =============",
"=============================  $$$$$$XXXXoo&&&&  ===============",
"=============================  $$$$$$XXXXoo&&&&  ===============",
"=============================  XX$$$$$$oooo&&&&  ===============",
"=============================  XX$$$$$$oooo&&&&  ===============",
"=============================  XXXX$$$$oooo    =================",
"=============================  XXXX$$$$oooo    =================",
"=============================  ooooooOOOOOO  ===================",
"=============================  ooooooOOOOOO  ===================",
"===========================  oo####ooOOOOOOOO  =================",
"===========================  oo####ooOOOOOOOO  =================",
"===========================  ######OOOOOOOOOOOO  ===============",
"===========================  ######OOOOOOOOOOOO  ===============",
"=========================  oo######    OOOOOOOO  ===============",
"=========================  oo######    OOOOOOOO  ===============",
"=========================  ######  ====  OOOOOO  ===============",
"=========================  ######  ====  OOOOOO  ===============",
"=======================  oo######  ====  OOOOOO  ===============",
"=======================  oo######  ====  OOOOOO  ===============",
"=====================  oooo####  ====  OOOOOO  =================",
"=====================  oooo####  ====  OOOOOO  =================",
"===================  oooooooo  ====    OOOO  ===================",
"===================  oooooooo  ====    OOOO  ===================",
"===================  oooooo  ======        =====================",
"===================  oooooo  ======        =====================",
"=================  oooooo  ========        =====================",
"=================  oooooo  ========        =====================",
"===============  oooooo  ============      =====================",
"===============  oooooo  ============      =====================",
"=============  ........  =======================================",
"=============  ........  =======================================",
"=============  ........  =======================================",
"=============  ........  ======================================="
};
