/* XPM */
static char *result[] = {
/* columns rows colors chars-per-pixel */
"64 64 11 1 ",
"  c black",
". c #37446E",
"X c #D22F1E",
"o c #800C53",
"O c #E6336A",
"+ c #CCAC68",
"@ c #566A89",
"# c #F96B80",
"$ c #FFDBA5",
"% c #CCE2E1",
"& c None",
/* pixels */
"&&&&&&&&&&&&&&&&&&&&&&  OO  &&&&&&&&&&&&&&&&&&&&&&&&&&&&&&&&&&&&",
"&&&&&&&&&&&&&&&&&&&&&&  OO  &&&&&&&&&&&&&&&&&&&&&&&&&&&&&&&&&&&&",
"&&&&&&&&&&&&&&&&&&&&&&  OOOO        &&    &&&&&&&&&&&&&&&&&&&&&&",
"&&&&&&&&&&&&&&&&&&&&&&  OOOO        &&    &&&&&&&&&&&&&&&&&&&&&&",
"&&&&&&&&&&&&&&&&&&&&&&  OOOO######OO  OO  &&&&&&&&&&&&&&&&&&&&&&",
"&&&&&&&&&&&&&&&&&&&&&&  OOOO######OO  OO  &&&&&&&&&&&&&&&&&&&&&&",
"&&&&&&&&&&&&&&&&&&&&  OOOO########OOOO  &&&&&&&&&&&&&&&&&&&&&&&&",
"&&&&&&&&&&&&&&&&&&&&  OOOO########OOOO  &&&&&&&&&&&&&&&&&&&&&&&&",
"&&&&&&&&&&&&&&&&&&  OOOOOO########OOOOOO  &&    &&&&&&&&&&&&&&&&",
"&&&&&&&&&&&&&&&&&&  OOOOOO########OOOOOO  &&    &&&&&&&&&&&&&&&&",
"&&&&&&&&&&&&&&&&&&    OOOO######OOOOOOOOOO  $$$$  &&&&&&&&&&&&&&",
"&&&&&&&&&&&&&&&&&&    OOOO######OOOOOOOOOO  $$$$  &&&&&&&&&&&&&&",
"&&&&&&&&&&&&&&&&&&&&  OOOOOOOOOOOOOOOOOO    $$$$  &&&&&&&&&&&&&&",
"&&&&&&&&&&&&&&&&&&&&  OOOOOOOOOOOOOOOOOO    $$$$  &&&&&&&&&&&&&&",
"&&&&&&&&&&&&&&&&&&&&  OOOOOOOOOOOOOOOOOO    XXXXXX  &&&&&&&&&&&&",
"&&&&&&&&&&&&&&&&&&&&  OOOOOOOOOOOOOOOOOO    XXXXXX  &&&&&&&&&&&&",
"&&&&&&&&&&&&&&&&&&  OOOOOOOOOOOOOOOOOOOO  &&  XXXX  &&&&&&&&&&&&",
"&&&&&&&&&&&&&&&&&&  OOOOOOOOOOOOOOOOOOOO  &&  XXXX  &&&&&&&&&&&&",
"&&&&&&&&&&&&&&&&&&    OOOOOOOOOOOOOOOOOO  &&  @@@@  &&&&&&&&&&&&",
"&&&&&&&&&&&&&&&&&&    OOOOOOOOOOOOOOOOOO  &&  @@@@  &&&&&&&&&&&&",
"&&&&&&&&&&&&&&&&&&&&  @@OOOOOOOOOOOOOO@@%%  @@@@  &&&&&&&&&&&&&&",
"&&&&&&&&&&&&&&&&&&&&  @@OOOOOOOOOOOOOO@@%%  @@@@  &&&&&&&&&&&&&&",
"&&&&&&&&&&&&&&      %%@@OO@@OOOOOO@@OO%%@@@@@@@@  &&&&&&&&&&&&&&",
"&&&&&&&&&&&&&&      %%@@OO@@OOOOOO@@OO%%@@@@@@@@  &&&&&&&&&&&&&&",
"&&&&&&&&&&&&  ++++@@@@%%%%@@@@OOOO%%OO..@@@@    &&&&&&&&&&&&&&&&",
"&&&&&&&&&&&&  ++++@@@@%%%%@@@@OOOO%%OO..@@@@    &&&&&&&&&&&&&&&&",
"&&&&&&&&&&&&  ++++@@@@....%%%%OOOO......    &&&&&&&&&&&&&&&&&&&&",
"&&&&&&&&&&&&  ++++@@@@....%%%%OOOO......    &&&&&&&&&&&&&&&&&&&&",
"&&&&&&&&&&&&  oooo@@@@........OO......  &&&&&&&&&&&&&&&&&&&&&&&&",
"&&&&&&&&&&&&  oooo@@@@........OO......  &&&&&&&&&&&&&&&&&&&&&&&&",
"&&&&&&&&&&&&&&  ..@@@@  ......OO......  &&&&&&&&&&&&&&&&&&&&&&&&",
"&&&&&&&&&&&&&&  ..@@@@  ......OO......  &&&&&&&&&&&&&&&&&&&&&&&&",
"&&&&&&&&&&&&&&&&  @@@@  ..............  &&&&&&&&&&&&&&&&&&&&&&&&",
"&&&&&&&&&&&&&&&&  @@@@  ..............  &&&&&&&&&&&&&&&&&&&&&&&&",
"&&&&&&&&&&&&&&&&&&      ..............    &&&&&&&&&&&&&&&&&&&&&&",
"&&&&&&&&&&&&&&&&&&      ..............    &&&&&&&&&&&&&&&&&&&&&&",
"&&&&&&&&&&&&&&&&&&&&&&  ..............oooo  &&&&&&&&&&&&&&&&&&&&",
"&&&&&&&&&&&&&&&&&&&&&&  ..............oooo  &&&&&&&&&&&&&&&&&&&&",
"&&&&&&&&&&&&&&&&&&&&&&  ..............oooooo  &&&&&&&&&&&&&&&&&&",
"&&&&&&&&&&&&&&&&&&&&&&  ..............oooooo  &&&&&&&&&&&&&&&&&&",
"&&&&&&&&&&&&&&&&&&&&  oo....oooooooooooooooo  &&&&&&&&&&&&&&&&&&",
"&&&&&&&&&&&&&&&&&&&&  oo....oooooooooooooooo  &&&&&&&&&&&&&&&&&&",
"&&&&&&&&&&&&&&&&&&&&  oooooooo    oooooooooo  &&&&&&&&&&&&&&&&&&",
"&&&&&&&&&&&&&&&&&&&&  oooooooo    oooooooooo  &&&&&&&&&&&&&&&&&&",
"&&&&&&&&&&&&&&&&&&  oooooooo  &&&&  oooooooo  &&&&&&&&&&&&&&&&&&",
"&&&&&&&&&&&&&&&&&&  oooooooo  &&&&  oooooooo  &&&&&&&&&&&&&&&&&&",
"&&&&&&&&&&&&&&&&&&  XXXXoo  &&&&&&  ooXXXX  &&&&&&&&&&&&&&&&&&&&",
"&&&&&&&&&&&&&&&&&&  XXXXoo  &&&&&&  ooXXXX  &&&&&&&&&&&&&&&&&&&&",
"&&&&&&&&&&&&&&&&&&  XXXXXX  &&&&&&  XXXXXX  &&&&&&&&&&&&&&&&&&&&",
"&&&&&&&&&&&&&&&&&&  XXXXXX  &&&&&&  XXXXXX  &&&&&&&&&&&&&&&&&&&&",
"&&&&&&&&&&&&&&&&&&  XXXXXX  &&&&&&  XXXXoo  &&&&&&&&&&&&&&&&&&&&",
"&&&&&&&&&&&&&&&&&&  XXXXXX  &&&&&&  XXXXoo  &&&&&&&&&&&&&&&&&&&&",
"&&&&&&&&&&&&&&&&&&  XXXXXX  &&&&&&            &&&&&&&&&&&&&&&&&&",
"&&&&&&&&&&&&&&&&&&  XXXXXX  &&&&&&            &&&&&&&&&&&&&&&&&&",
"&&&&&&&&&&&&&&&&&&  XXXXXX  &&&&&&            &&&&&&&&&&&&&&&&&&",
"&&&&&&&&&&&&&&&&&&  XXXXXX  &&&&&&            &&&&&&&&&&&&&&&&&&",
"&&&&&&&&&&&&&&&&&&  ooXXXX  &&&&&&&&&&&&&&&&&&&&&&&&&&&&&&&&&&&&",
"&&&&&&&&&&&&&&&&&&  ooXXXX  &&&&&&&&&&&&&&&&&&&&&&&&&&&&&&&&&&&&",
"&&&&&&&&&&&&&&&&&&          &&&&&&&&&&&&&&&&&&&&&&&&&&&&&&&&&&&&",
"&&&&&&&&&&&&&&&&&&          &&&&&&&&&&&&&&&&&&&&&&&&&&&&&&&&&&&&",
"&&&&&&&&&&&&&&&&            &&&&&&&&&&&&&&&&&&&&&&&&&&&&&&&&&&&&",
"&&&&&&&&&&&&&&&&            &&&&&&&&&&&&&&&&&&&&&&&&&&&&&&&&&&&&",
"&&&&&&&&&&&&&&&&        &&&&&&&&&&&&&&&&&&&&&&&&&&&&&&&&&&&&&&&&",
"&&&&&&&&&&&&&&&&        &&&&&&&&&&&&&&&&&&&&&&&&&&&&&&&&&&&&&&&&"
};
