/* XPM */
static char *result[] = {
/* columns rows colors chars-per-pixel */
"64 64 10 1 ",
"  c black",
". c #37446E",
"X c #D22F1E",
"o c #800C53",
"O c #E6336A",
"+ c #CCAC68",
"@ c #566A89",
"# c #F96B80",
"$ c #CCE2E1",
"% c None",
/* pixels */
"%%%%%%%%%%%%%%%%%%%%%%  OO  %%%%%%%%%%%%%%%%%%%%%%%%%%%%%%%%%%%%",
"%%%%%%%%%%%%%%%%%%%%%%  OO  %%%%%%%%%%%%%%%%%%%%%%%%%%%%%%%%%%%%",
"%%%%%%%%%%%%%%%%%%%%%%  OOOO        %%    %%%%%%%%%%%%%%%%%%%%%%",
"%%%%%%%%%%%%%%%%%%%%%%  OOOO        %%    %%%%%%%%%%%%%%%%%%%%%%",
"%%%%%%%%%%%%%%%%%%%%%%  OOOO######OO  OO  %%%%%%%%%%%%%%%%%%%%%%",
"%%%%%%%%%%%%%%%%%%%%%%  OOOO######OO  OO  %%%%%%%%%%%%%%%%%%%%%%",
"%%%%%%%%%%%%%%%%%%%%  OOOO########OOOOOO  %%%%%%%%%%%%%%%%%%%%%%",
"%%%%%%%%%%%%%%%%%%%%  OOOO########OOOOOO  %%%%%%%%%%%%%%%%%%%%%%",
"%%%%%%%%%%%%%%%%%%  OOOOOO########OOOOOO  %%%%%%%%%%%%%%%%%%%%%%",
"%%%%%%%%%%%%%%%%%%  OOOOOO########OOOOOO  %%%%%%%%%%%%%%%%%%%%%%",
"%%%%%%%%%%%%%%%%%%    OOOO######OOOOOOOOOO  %%%%%%%%%%%%%%%%%%%%",
"%%%%%%%%%%%%%%%%%%    OOOO######OOOOOOOOOO  %%%%%%%%%%%%%%%%%%%%",
"%%%%%%%%%%%%%%%%%%%%  OOOOOOOOOOOOOOOOOO    %%%%%%%%%%%%%%%%%%%%",
"%%%%%%%%%%%%%%%%%%%%  OOOOOOOOOOOOOOOOOO    %%%%%%%%%%%%%%%%%%%%",
"%%%%%%%%%%%%      %%  OOOOOOOOOOOOOOOOOO  %%%%%%%%%%%%%%%%%%%%%%",
"%%%%%%%%%%%%      %%  OOOOOOOOOOOOOOOOOO  %%%%%%%%%%%%%%%%%%%%%%",
"%%%%%%%%%%%%  ++++  OOOOOOOOOOOOOOOOOOOO  %%      %%%%%%%%%%%%%%",
"%%%%%%%%%%%%  ++++  OOOOOOOOOOOOOOOOOOOO  %%      %%%%%%%%%%%%%%",
"%%%%%%%%%%%%  ++++    OOOOOOOOOOOOOOOOOO    ++++  %%%%%%%%%%%%%%",
"%%%%%%%%%%%%  ++++    OOOOOOOOOOOOOOOOOO    ++++  %%%%%%%%%%%%%%",
"%%%%%%%%%%%%  oooo    @@OOOOOOOOOOOOOO@@    ++++  %%%%%%%%%%%%%%",
"%%%%%%%%%%%%  oooo    @@OOOOOOOOOOOOOO@@    ++++  %%%%%%%%%%%%%%",
"%%%%%%%%%%%%  oooo  $$@@OO@@OOOOOO@@OO@@$$    oooo  %%%%%%%%%%%%",
"%%%%%%%%%%%%  oooo  $$@@OO@@OOOOOO@@OO@@$$    oooo  %%%%%%%%%%%%",
"%%%%%%%%%%%%  ....@@@@$$$$@@@@OOOO@@OO$$@@@@..oooo  %%%%%%%%%%%%",
"%%%%%%%%%%%%  ....@@@@$$$$@@@@OOOO@@OO$$@@@@..oooo  %%%%%%%%%%%%",
"%%%%%%%%%%%%%%  ..@@@@....$$$$OOOO$$....@@@@....  %%%%%%%%%%%%%%",
"%%%%%%%%%%%%%%  ..@@@@....$$$$OOOO$$....@@@@....  %%%%%%%%%%%%%%",
"%%%%%%%%%%%%%%  @@@@  ........OO........  @@@@..  %%%%%%%%%%%%%%",
"%%%%%%%%%%%%%%  @@@@  ........OO........  @@@@..  %%%%%%%%%%%%%%",
"%%%%%%%%%%%%%%  @@@@    ......OO......    @@@@  %%%%%%%%%%%%%%%%",
"%%%%%%%%%%%%%%  @@@@    ......OO......    @@@@  %%%%%%%%%%%%%%%%",
"%%%%%%%%%%%%%%%%    %%  ..............  %%    %%%%%%%%%%%%%%%%%%",
"%%%%%%%%%%%%%%%%    %%  ..............  %%    %%%%%%%%%%%%%%%%%%",
"%%%%%%%%%%%%%%%%%%%%%%  ..............  %%%%%%%%%%%%%%%%%%%%%%%%",
"%%%%%%%%%%%%%%%%%%%%%%  ..............  %%%%%%%%%%%%%%%%%%%%%%%%",
"%%%%%%%%%%%%%%%%%%%%    ..............  %%%%%%%%%%%%%%%%%%%%%%%%",
"%%%%%%%%%%%%%%%%%%%%    ..............  %%%%%%%%%%%%%%%%%%%%%%%%",
"%%%%%%%%%%%%%%%%%%  oooo..............  %%%%%%%%%%%%%%%%%%%%%%%%",
"%%%%%%%%%%%%%%%%%%  oooo..............  %%%%%%%%%%%%%%%%%%%%%%%%",
"%%%%%%%%%%%%%%%%  oooooo..............  %%%%%%%%%%%%%%%%%%%%%%%%",
"%%%%%%%%%%%%%%%%  oooooo..............  %%%%%%%%%%%%%%%%%%%%%%%%",
"%%%%%%%%%%%%%%%%  oooooooooooooooooooo  %%%%%%%%%%%%%%%%%%%%%%%%",
"%%%%%%%%%%%%%%%%  oooooooooooooooooooo  %%%%%%%%%%%%%%%%%%%%%%%%",
"%%%%%%%%%%%%%%%%  oooooooooo      oooooo  %%%%%%%%%%%%%%%%%%%%%%",
"%%%%%%%%%%%%%%%%  oooooooooo      oooooo  %%%%%%%%%%%%%%%%%%%%%%",
"%%%%%%%%%%%%%%%%  ooXXXXoo  %%%%  oooooo  %%%%%%%%%%%%%%%%%%%%%%",
"%%%%%%%%%%%%%%%%  ooXXXXoo  %%%%  oooooo  %%%%%%%%%%%%%%%%%%%%%%",
"%%%%%%%%%%%%%%%%%%  XXXXXX  %%%%  oooooo  %%%%%%%%%%%%%%%%%%%%%%",
"%%%%%%%%%%%%%%%%%%  XXXXXX  %%%%  oooooo  %%%%%%%%%%%%%%%%%%%%%%",
"%%%%%%%%%%%%%%%%%%  XXXXXX  %%%%%%  ooXXXX  %%%%%%%%%%%%%%%%%%%%",
"%%%%%%%%%%%%%%%%%%  XXXXXX  %%%%%%  ooXXXX  %%%%%%%%%%%%%%%%%%%%",
"%%%%%%%%%%%%%%%%%%  ooXXXX  %%%%%%  XXXXXX  %%%%%%%%%%%%%%%%%%%%",
"%%%%%%%%%%%%%%%%%%  ooXXXX  %%%%%%  XXXXXX  %%%%%%%%%%%%%%%%%%%%",
"%%%%%%%%%%%%%%%%            %%%%%%  XXXXXX  %%%%%%%%%%%%%%%%%%%%",
"%%%%%%%%%%%%%%%%            %%%%%%  XXXXXX  %%%%%%%%%%%%%%%%%%%%",
"%%%%%%%%%%%%%%%%            %%%%%%  XXXXoo  %%%%%%%%%%%%%%%%%%%%",
"%%%%%%%%%%%%%%%%            %%%%%%  XXXXoo  %%%%%%%%%%%%%%%%%%%%",
"%%%%%%%%%%%%%%%%%%%%%%%%%%%%%%%%%%          %%%%%%%%%%%%%%%%%%%%",
"%%%%%%%%%%%%%%%%%%%%%%%%%%%%%%%%%%          %%%%%%%%%%%%%%%%%%%%",
"%%%%%%%%%%%%%%%%%%%%%%%%%%%%%%%%%%            %%%%%%%%%%%%%%%%%%",
"%%%%%%%%%%%%%%%%%%%%%%%%%%%%%%%%%%            %%%%%%%%%%%%%%%%%%",
"%%%%%%%%%%%%%%%%%%%%%%%%%%%%%%%%%%%%          %%%%%%%%%%%%%%%%%%",
"%%%%%%%%%%%%%%%%%%%%%%%%%%%%%%%%%%%%          %%%%%%%%%%%%%%%%%%"
};
