/* XPM */
static char *result[] = {
/* columns rows colors chars-per-pixel */
"64 64 8 1 ",
"  c #FF7824",
". c #FFA408",
"X c #F2D600",
"o c #6A1B9A",
"O c #9C27B0",
"+ c #E32282",
"@ c #C204A9",
"# c None",
/* pixels */
"##########################XXXXXXXXXXX###########################",
"######################XXXXXXXXXXXXXXXXXXX#######################",
"###################XXXXXXXXXXXXXXXXXXXXXXXXX####################",
"#################XXXXXXXXXXXXXXXXXXXXXXXXXXXXX##################",
"###############XXXXXXXXXXXXXXXXXXXXXXXXXXXXXXXXX################",
"##############XXXXXXXXXXXXXXXXXXXXXXXXXXXXXXXXXXX###############",
"#############XXXXXXXXXXXXXXXXXXXXXXXXXXXXXXXXXXXXX##############",
"###########XXXXXXXXXXXXXXXXXXXXXXXXXXXXXXXXXXXXXXXXX############",
"##########XXXXXXXXXXXXXXXXXXXXXXXXXXXXXXXXXXXXXXXXXXX###########",
"#########XXXXXXXXXXXXXXXXXXXXXXXXXXXXXXXXXXXXXXXXXXXXX##########",
"########XXXXXXXXXXXXXXXXXXXXXXXXXXXXXXXXXXXXXXXXXXXXXXX#########",
"#######XXXXXXXXXXXXXXXXXXXXXXXXXXXXXXXXXXXXXXXXXXXXXXXXX########",
"#######XXXXXXXXXXXXXXXXXXXXXXXXXXXXXXXXXXXXXXXXXXXXXXXXX########",
"######XXXXXXXXXXXXXXXXXXXXXXXXXXXXXXXXXXXXXXXXXXXXXXXXXXX#######",
"################################################################",
"################################################################",
"####.......................................................#####",
"###.........................................................####",
"###.........................................................####",
"##...........................................................###",
"##...........................................................###",
"##...........................................................###",
"#.............................................................##",
"################################################################",
"################################################################",
"#                                                             ##",
"                                                               #",
"                                                               #",
"                                                               #",
"                                                               #",
"                                                               #",
"################################################################",
"################################################################",
"+++++++++++++++++++++++++++++++++++++++++++++++++++++++++++++++#",
"+++++++++++++++++++++++++++++++++++++++++++++++++++++++++++++++#",
"+++++++++++++++++++++++++++++++++++++++++++++++++++++++++++++++#",
"+++++++++++++++++++++++++++++++++++++++++++++++++++++++++++++++#",
"#+++++++++++++++++++++++++++++++++++++++++++++++++++++++++++++##",
"#+++++++++++++++++++++++++++++++++++++++++++++++++++++++++++++##",
"################################################################",
"################################################################",
"##@@@@@@@@@@@@@@@@@@@@@@@@@@@@@@@@@@@@@@@@@@@@@@@@@@@@@@@@@@@###",
"##@@@@@@@@@@@@@@@@@@@@@@@@@@@@@@@@@@@@@@@@@@@@@@@@@@@@@@@@@@@###",
"##@@@@@@@@@@@@@@@@@@@@@@@@@@@@@@@@@@@@@@@@@@@@@@@@@@@@@@@@@@@###",
"###@@@@@@@@@@@@@@@@@@@@@@@@@@@@@@@@@@@@@@@@@@@@@@@@@@@@@@@@@####",
"###@@@@@@@@@@@@@@@@@@@@@@@@@@@@@@@@@@@@@@@@@@@@@@@@@@@@@@@@@####",
"####@@@@@@@@@@@@@@@@@@@@@@@@@@@@@@@@@@@@@@@@@@@@@@@@@@@@@@@#####",
"################################################################",
"################################################################",
"######OOOOOOOOOOOOOOOOOOOOOOOOOOOOOOOOOOOOOOOOOOOOOOOOOOO#######",
"#######OOOOOOOOOOOOOOOOOOOOOOOOOOOOOOOOOOOOOOOOOOOOOOOOO########",
"#######OOOOOOOOOOOOOOOOOOOOOOOOOOOOOOOOOOOOOOOOOOOOOOOOO########",
"########OOOOOOOOOOOOOOOOOOOOOOOOOOOOOOOOOOOOOOOOOOOOOOO#########",
"#########OOOOOOOOOOOOOOOOOOOOOOOOOOOOOOOOOOOOOOOOOOOOO##########",
"################################################################",
"################################################################",
"#############ooooooooooooooooooooooooooooooooooooo##############",
"##############ooooooooooooooooooooooooooooooooooo###############",
"###############ooooooooooooooooooooooooooooooooo################",
"#################ooooooooooooooooooooooooooooo##################",
"###################ooooooooooooooooooooooooo####################",
"######################ooooooooooooooooooo#######################",
"##########################ooooooooooo###########################",
"################################################################"
};
