/* XPM */
static char *result[] = {
/* columns rows colors chars-per-pixel */
"64 64 14 1 ",
"  c black",
". c #222A5C",
"X c #37446E",
"o c #D22F1E",
"O c #800C53",
"+ c #AB1F65",
"@ c #E6336A",
"# c #FF8142",
"$ c #CCAC68",
"% c #566A89",
"& c #F96B80",
"* c #FFDBA5",
"= c #CCE2E1",
"- c None",
/* pixels */
"--------------------------        ------------------------------",
"------------------------  @@@@@@@@  ----------------------------",
"------------------------  @@@@@@@@  ----------------------------",
"----------------------  @@@@&&&&@@@@  --------------------------",
"----------------------  @@@@&&&&@@@@  --------------------------",
"--------------------  @@@@@@&&&&&&@@@@  ------------------------",
"--------------------  @@@@@@&&&&&&@@@@  ------------------------",
"--------------------  @@@@**@@&&&&@@  @@  ----------------------",
"--------------------  @@@@**@@&&&&@@  @@  ----------------------",
"--------------------  ++****@@@@@@@@@@    ----------------------",
"--------------------  ++****@@@@@@@@@@    ----------------------",
"------------------  ++++******@@@@@@@@  ------------------------",
"------------------  ++++******@@@@@@@@  ------------------------",
"------------------    ++********@@@@@@@@  ----------------------",
"------------------    ++********@@@@@@@@  ----------------------",
"--------------------  ++********@@@@@@@@  ----------------------",
"--------------------  ++********@@@@@@@@  ----------------------",
"--------------------    ********@@@@@@    ----------------------",
"--------------------    ********@@@@@@    ----------------------",
"--------------------  XX%%%%%%%%%%@@%%@@  ----------------------",
"--------------------  XX%%%%%%%%%%@@%%@@  ----------------------",
"--------------------  %%%%%%%%%%%%@@%%%%==    ------------------",
"--------------------  %%%%%%%%%%%%@@%%%%==    ------------------",
"------------------  %%%%%%%%%%%%%%%%%%==%%%%%%  ----------------",
"------------------  %%%%%%%%%%%%%%%%%%==%%%%%%  ----------------",
"------------------  %%%%%%%%%%%%%%%%==%%%%%%%%%%  --------------",
"------------------  %%%%%%%%%%%%%%%%==%%%%%%%%%%  --------------",
"------------------  ==%%%%%%%%%%====        %%%%%%  ------------",
"------------------  ==%%%%%%%%%%====        %%%%%%  ------------",
"--------------------  ==%%%%====XXXX  ------  %%%%  ------------",
"--------------------  ==%%%%====XXXX  ------  %%%%  ------------",
"--------------------  XX====XXXXXXXX  ------  oooo  ------------",
"--------------------  XX====XXXXXXXX  ------  oooo  ------------",
"--------------      XXXXXXXXXXXXXXXX  ------  oooo  ------------",
"--------------      XXXXXXXXXXXXXXXX  ------  oooo  ------------",
"------------  $$$$OOOOXX  XXXXXXXXXXXX  --  ****  --------------",
"------------  $$$$OOOOXX  XXXXXXXXXXXX  --  ****  --------------",
"------------  $$$$OOOO    ####ooOOOOOO  --  ****  --------------",
"------------  $$$$OOOO    ####ooOOOOOO  --  ****  --------------",
"--------------        ##########ooOOOOOO  --    ----------------",
"--------------        ##########ooOOOOOO  --    ----------------",
"------------------  ##########ooooOOOOOO  ----------------------",
"------------------  ##########ooooOOOOOO  ----------------------",
"------------------  ######oooo    OOOOOOOO  --------------------",
"------------------  ######oooo    OOOOOOOO  --------------------",
"------------------  oooooooo  ----  OOOOOO  --------------------",
"------------------  oooooooo  ----  OOOOOO  --------------------",
"--------------------  oooooooo  --  OOOOOOOO  ------------------",
"--------------------  oooooooo  --  OOOOOOOO  ------------------",
"----------------------  oooooooo  --  OOOOOO  ------------------",
"----------------------  oooooooo  --  OOOOOO  ------------------",
"------------------------  oooo..  --  OOOOOOOO  ----------------",
"------------------------  oooo..  --  OOOOOOOO  ----------------",
"--------------------------  ....  ----  OOOOOOOO  --------------",
"--------------------------  ....  ----  OOOOOOOO  --------------",
"--------------------------  ....  ------  OOOOOOOO  ------------",
"--------------------------  ....  ------  OOOOOOOO  ------------",
"--------------------------  ....  --------  OOOOOO  ------------",
"--------------------------  ....  --------  OOOOOO  ------------",
"----------------------------      ------            ------------",
"----------------------------      ------            ------------",
"----------------------------------------            ------------",
"----------------------------------------            ------------",
"----------------------------------------------------------------"
};
