/* XPM */
static char *result[] = {
/* columns rows colors chars-per-pixel */
"64 64 14 1 ",
"  c black",
". c #222A5C",
"X c #37446E",
"o c #D22F1E",
"O c #800C53",
"+ c #AB1F65",
"@ c #E6336A",
"# c #FF8142",
"$ c #CCAC68",
"% c #566A89",
"& c #F96B80",
"* c #FFDBA5",
"= c #CCE2E1",
"- c None",
/* pixels */
"-----------------------  @@@@@@  -------------------------------",
"-----------------------  @@@@@@  -------------------------------",
"---------------------  @@@@@@        ---------------------------",
"---------------------  @@@@@@        ---------------------------",
"---------------------  @@@@&&&&@@@@@@  -------------------------",
"---------------------  @@@@&&&&@@@@@@  -------------------------",
"-------------------  @@@@@@&&&&&&@@@@@@  -----------------------",
"-------------------  @@@@@@&&&&&&@@@@@@  -----------------------",
"-------------------  @@@@**@@&&&&@@      -----------------------",
"-------------------  @@@@**@@&&&&@@      -----------------------",
"-----------------  ++++****@@@@@@@@@@  -------------------------",
"-----------------  ++++****@@@@@@@@@@  -------------------------",
"-----------------    ++******@@@@@@@@@@  -----------------------",
"-----------------    ++******@@@@@@@@@@  -----------------------",
"-------------------  ++********@@@@  @@  -----------------------",
"-------------------  ++********@@@@  @@  -----------------------",
"-------------------  ++********@@@@@@    -----------------------",
"-------------------  ++********@@@@@@    -----------------------",
"-------------------    ********@@@@@@  -------------------------",
"-------------------    ********@@@@@@  -------------------------",
"-------------------  XX%%%%%%%%%%@@%%@@  --        -------------",
"-------------------  XX%%%%%%%%%%@@%%@@  --        -------------",
"-------------------  %%%%%%%%%%%%@@%%%%==  %%%%%%%%  -----------",
"-------------------  %%%%%%%%%%%%@@%%%%==  %%%%%%%%  -----------",
"-----------------  %%%%%%%%%%%%%%%%%%==%%%%%%%%%%%%oo  ---------",
"-----------------  %%%%%%%%%%%%%%%%%%==%%%%%%%%%%%%oo  ---------",
"-----      ------  %%%%%%%%%%%%%%%%%%==%%%%%%    oooooo  -------",
"-----      ------  %%%%%%%%%%%%%%%%%%==%%%%%%    oooooo  -------",
"-----  $$$$  ----  ==%%%%%%%%%%%%====XX      ----  oo****  -----",
"-----  $$$$  ----  ==%%%%%%%%%%%%====XX      ----  oo****  -----",
"-----  $$$$OO    XXXX==%%%%%%====XXXXXX  ----------  ****  -----",
"-----  $$$$OO    XXXX==%%%%%%====XXXXXX  ----------  ****  -----",
"-------  OOOOOOXXXXXX  ======XXXXXXXX  --------------      -----",
"-------  OOOOOOXXXXXX  ======XXXXXXXX  --------------      -----",
"---------  OOXXXXXXXX    XXXXXXXXXXXX  -------------------------",
"---------  OOXXXXXXXX    XXXXXXXXXXXX  -------------------------",
"-----------    XXXX  --  XXXXXXXXXXXX  -------------------------",
"-----------    XXXX  --  XXXXXXXXXXXX  -------------------------",
"---------------    ----  XXXXXXXXXXXX  -------------------------",
"---------------    ----  XXXXXXXXXXXX  -------------------------",
"-----------------------  ####ooOOOOOOOO  -----------------------",
"-----------------------  ####ooOOOOOOOO  -----------------------",
"---------------------  ######ooOOOOOOOO  --      ---------------",
"---------------------  ######ooOOOOOOOO  --      ---------------",
"-------------------  ######oo    OOOOOOOO  OO      -------------",
"-------------------  ######oo    OOOOOOOO  OO      -------------",
"-------------------  ####oo  ----  OOOOOOOOOOOO      -----------",
"-------------------  ####oo  ----  OOOOOOOOOOOO      -----------",
"-----------------  ####oo  --------  OOOOOOOOOOOO    -----------",
"-----------------  ####oo  --------  OOOOOOOOOOOO    -----------",
"-----------------  oooooo  ----------  OOOOOO    ---------------",
"-----------------  oooooo  ----------  OOOOOO    ---------------",
"-----------------  oooooo  ------------      -------------------",
"-----------------  oooooo  ------------      -------------------",
"-------------------  oooo  -------------------------------------",
"-------------------  oooo  -------------------------------------",
"-------------------  oooooo  -----------------------------------",
"-------------------  oooooo  -----------------------------------",
"-------------------  oooooo  -----------------------------------",
"-------------------  oooooo  -----------------------------------",
"-----------------  ........  -----------------------------------",
"-----------------  ........  -----------------------------------",
"-----------------  ........  -----------------------------------",
"-----------------  ........  -----------------------------------"
};
