/* XPM */
static char *result[] = {
/* columns rows colors chars-per-pixel */
"64 64 13 1 ",
"  c black",
". c #222A5C",
"X c #37446E",
"o c #D22F1E",
"O c #800C53",
"+ c #AB1F65",
"@ c #E6336A",
"# c #FF8142",
"$ c #566A89",
"% c #F96B80",
"& c #FFDBA5",
"* c #CCE2E1",
"= c None",
/* pixels */
"=====================        ===================================",
"=====================        ===================================",
"===================  @@@@@@@@  =================================",
"===================  @@@@@@@@  =================================",
"=================  @@@@%%%%@@@@  ===============================",
"=================  @@@@%%%%@@@@  ===============================",
"===============  @@@@@@%%%%%%@@@@  =============================",
"===============  @@@@@@%%%%%%@@@@  =============================",
"===============  @@@@&&@@%%%%@@  @@  ===========================",
"===============  @@@@&&@@%%%%@@  @@  ===========================",
"===============  ++&&&&@@@@@@@@@@    ===========================",
"===============  ++&&&&@@@@@@@@@@    ===========================",
"=============  ++++&&&&&&@@@@@@@@  =============================",
"=============  ++++&&&&&&@@@@@@@@  =============================",
"=============    ++&&&&&&&&@@@@@@@@  ===========================",
"=============    ++&&&&&&&&@@@@@@@@  ===========================",
"===============  ++&&&&&&&&@@@@@@@@  ===========================",
"===============  ++&&&&&&&&@@@@@@@@  ===========================",
"===============    &&&&&&&&@@@@@@    ===========================",
"===============    &&&&&&&&@@@@@@    ===========================",
"===============  XX$$$$$$$$$$@@$$@@  ===========================",
"===============  XX$$$$$$$$$$@@$$@@  ===========================",
"===============  $$$$$$$$$$@@$$$$$$@@  =========================",
"===============  $$$$$$$$$$@@$$$$$$@@  =========================",
"===============  $$$$$$$$$$$$$$$$**    =========================",
"===============  $$$$$$$$$$$$$$$$**    =========================",
"===============  $$$$$$$$$$$$****$$  ===========================",
"===============  $$$$$$$$$$$$****$$  ===========================",
"=============  **$$$$$$$$****XX$$$$  ===========================",
"=============  **$$$$$$$$****XX$$$$  ===========================",
"=============  **$$$$****XXXX$$$$$$  ===========================",
"=============  **$$$$****XXXX$$$$$$  ===========================",
"===============  &&&&ooXXXX$$$$$$  =============================",
"===============  &&&&ooXXXX$$$$$$  =============================",
"===============  &&&&oooo$$$$$$XX  =============================",
"===============  &&&&oooo$$$$$$XX  =============================",
"=================    oooo$$$$XXXX  =============================",
"=================    oooo$$$$XXXX  =============================",
"===================  OOOOOOoooooo  =============================",
"===================  OOOOOOoooooo  =============================",
"=================  OOOOOOOOoo####oo  ===========================",
"=================  OOOOOOOOoo####oo  ===========================",
"===============  OOOOOOOOOOOO######  ===========================",
"===============  OOOOOOOOOOOO######  ===========================",
"===============  OOOOOOOO    ######oo  =========================",
"===============  OOOOOOOO    ######oo  =========================",
"===============  OOOOOO  ====  ######  =========================",
"===============  OOOOOO  ====  ######  =========================",
"===============  OOOOOO  ====  ######oo  =======================",
"===============  OOOOOO  ====  ######oo  =======================",
"=================  OOOOOO  ====  ####oooo  =====================",
"=================  OOOOOO  ====  ####oooo  =====================",
"===================  OOOO    ====  oooooooo  ===================",
"===================  OOOO    ====  oooooooo  ===================",
"=====================        ======  oooooo  ===================",
"=====================        ======  oooooo  ===================",
"=====================        ========  oooooo  =================",
"=====================        ========  oooooo  =================",
"=====================      ============  oooooo  ===============",
"=====================      ============  oooooo  ===============",
"=======================================  ........  =============",
"=======================================  ........  =============",
"=======================================  ........  =============",
"=======================================  ........  ============="
};
