/* XPM */
static char *result[] = {
/* columns rows colors chars-per-pixel */
"64 64 13 1 ",
"  c black",
". c #222A5C",
"X c #37446E",
"o c #D22F1E",
"O c #800C53",
"+ c #AB1F65",
"@ c #E6336A",
"# c #FF8142",
"$ c #566A89",
"% c #F96B80",
"& c #FFDBA5",
"* c #CCE2E1",
"= c None",
/* pixels */
"==============================  @@    ==========================",
"==============================  @@    ==========================",
"================================  @@@@  ========================",
"================================  @@@@  ========================",
"======================            @@@@@@  ======================",
"======================            @@@@@@  ======================",
"======================  @@@@@@@@%%%%@@@@  ======================",
"======================  @@@@@@@@%%%%@@@@  ======================",
"========================  @@@@%%%%%%@@@@@@  ====================",
"========================  @@@@%%%%%%@@@@@@  ====================",
"==========================  @@%%%%@@&&@@@@    ==================",
"==========================  @@%%%%@@&&@@@@    ==================",
"========================  @@@@@@@@@@&&&&++++  ==================",
"========================  @@@@@@@@@@&&&&++++  ==================",
"======================  @@@@@@@@@@&&&&&&++  ====================",
"======================  @@@@@@@@@@&&&&&&++  ====================",
"======================      @@@@&&&&&&&&++  ====================",
"======================      @@@@&&&&&&&&++  ====================",
"========================  @@@@@@&&&&&&&&++  ====================",
"========================  @@@@@@&&&&&&&&++  ====================",
"========================  @@@@@@&&&&&&&&    ====================",
"========================  @@@@@@&&&&&&&&    ====================",
"======================  @@$$@@$$$$$$$$$$XX  ====================",
"======================  @@$$@@$$$$$$$$$$XX  ====================",
"====================  @@$$$$$$@@$$$$$$$$$$  ====================",
"====================  @@$$$$$$@@$$$$$$$$$$  ====================",
"====================    **$$$$$$$$$$$$$$$$  ====================",
"====================    **$$$$$$$$$$$$$$$$  ====================",
"========================  ****$$$$$$$$$$$$  ====================",
"========================  ****$$$$$$$$$$$$  ====================",
"======================  $$$$$$****$$$$$$$$**  ==================",
"======================  $$$$$$****$$$$$$$$**  ==================",
"======================  $$$$$$XXXX****$$$$**  ==================",
"======================  $$$$$$XXXX****$$$$**  ==================",
"====================  $$$$$$$$$$XXXXXX****  ====================",
"====================  $$$$$$$$$$XXXXXX****  ====================",
"====================  $$$$$$$$ooooooXXXX  ======================",
"====================  $$$$$$$$ooooooXXXX  ======================",
"====================  $$$$oooooooooo&&&&  ======================",
"====================  $$$$oooooooooo&&&&  ======================",
"======================  oooooooo&&&&&&&&  ======================",
"======================  oooooooo&&&&&&&&  ======================",
"========================  oo&&&&&&&&    ========================",
"========================  oo&&&&&&&&    ========================",
"========================  OOoo######  ==========================",
"========================  OOoo######  ==========================",
"======================    OOOO########  ========================",
"======================    OOOO########  ========================",
"====================  ....oooooo######  ========================",
"====================  ....oooooo######  ========================",
"====================  ....oooooooooooo  ========================",
"====================  ....oooooooooooo  ========================",
"==================  ......oooooooooo  ==========================",
"==================  ......oooooooooo  ==========================",
"==================  ....OOOOOO      ============================",
"==================  ....OOOOOO      ============================",
"==================      OOOOOO  ================================",
"==================      OOOOOO  ================================",
"======================  OOOOOO  ================================",
"======================  OOOOOO  ================================",
"======================            ==============================",
"======================            ==============================",
"======================            ==============================",
"======================            =============================="
};
