/* XPM */
static char *result[] = {
/* columns rows colors chars-per-pixel */
"64 64 11 1 ",
"  c black",
". c #37446E",
"X c #D22F1E",
"o c #800C53",
"O c #E6336A",
"+ c #CCAC68",
"@ c #566A89",
"# c #F96B80",
"$ c #FFDBA5",
"% c #CCE2E1",
"& c None",
/* pixels */
"&&&&&&&&&&&&&&&&&&&&&&  OO                  $$$$  &&&&&&&&&&&&&&",
"&&&&&&&&&&&&&&&&&&&&&&  OO                  $$$$  &&&&&&&&&&&&&&",
"&&&&&&&&&&&&&&&&&&&&&&  OOOO######OOOOOO    XXXX  &&&&&&&&&&&&&&",
"&&&&&&&&&&&&&&&&&&&&&&  OOOO######OOOOOO    XXXX  &&&&&&&&&&&&&&",
"&&&&&&&&&&&&&&&&&&&&  OOOO########OOOO  &&  XXXX  &&&&&&&&&&&&&&",
"&&&&&&&&&&&&&&&&&&&&  OOOO########OOOO  &&  XXXX  &&&&&&&&&&&&&&",
"&&&&&&&&&&&&&&&&&&  OOOOOO########OOOOOO    @@@@  &&&&&&&&&&&&&&",
"&&&&&&&&&&&&&&&&&&  OOOOOO########OOOOOO    @@@@  &&&&&&&&&&&&&&",
"&&&&&&&&&&&&&&&&&&    OOOO######OOOOOOOOOO  @@@@  &&&&&&&&&&&&&&",
"&&&&&&&&&&&&&&&&&&    OOOO######OOOOOOOOOO  @@@@  &&&&&&&&&&&&&&",
"&&&&&&&&&&&&&&&&&&&&  OOOOOOOOOOOOOOOOOO    @@@@  &&&&&&&&&&&&&&",
"&&&&&&&&&&&&&&&&&&&&  OOOOOOOOOOOOOOOOOO    @@@@  &&&&&&&&&&&&&&",
"&&&&&&&&&&&&&&&&&&&&  OOOOOOOOOOOOOOOOOO  @@@@@@  &&&&&&&&&&&&&&",
"&&&&&&&&&&&&&&&&&&&&  OOOOOOOOOOOOOOOOOO  @@@@@@  &&&&&&&&&&&&&&",
"&&&&&&&&&&&&&&&&&&  OOOOOOOOOOOOOOOOOOOO  @@@@  &&&&&&&&&&&&&&&&",
"&&&&&&&&&&&&&&&&&&  OOOOOOOOOOOOOOOOOOOO  @@@@  &&&&&&&&&&&&&&&&",
"&&&&&&&&&&&&          OOOOOOOOOOOOOOOOOO%%@@@@  &&&&&&&&&&&&&&&&",
"&&&&&&&&&&&&          OOOOOOOOOOOOOOOOOO%%@@@@  &&&&&&&&&&&&&&&&",
"&&&&&&&&&&&&  ++++    @@OOOOOOOOOOOOOO%%@@@@@@  &&&&&&&&&&&&&&&&",
"&&&&&&&&&&&&  ++++    @@OOOOOOOOOOOOOO%%@@@@@@  &&&&&&&&&&&&&&&&",
"&&&&&&&&&&&&  ++++  %%@@OO@@OOOOOO%%OO..@@@@  &&&&&&&&&&&&&&&&&&",
"&&&&&&&&&&&&  ++++  %%@@OO@@OOOOOO%%OO..@@@@  &&&&&&&&&&&&&&&&&&",
"&&&&&&&&&&&&  oooo@@@@%%%%%%%%OOOO..OO..    &&&&&&&&&&&&&&&&&&&&",
"&&&&&&&&&&&&  oooo@@@@%%%%%%%%OOOO..OO..    &&&&&&&&&&&&&&&&&&&&",
"&&&&&&&&&&&&  oo..@@@@........OOOO....  &&&&&&&&&&&&&&&&&&&&&&&&",
"&&&&&&&&&&&&  oo..@@@@........OOOO....  &&&&&&&&&&&&&&&&&&&&&&&&",
"&&&&&&&&&&&&&&  ..@@@@........OO......  &&&&&&&&&&&&&&&&&&&&&&&&",
"&&&&&&&&&&&&&&  ..@@@@........OO......  &&&&&&&&&&&&&&&&&&&&&&&&",
"&&&&&&&&&&&&&&  @@@@@@  ......OO......  &&&&&&&&&&&&&&&&&&&&&&&&",
"&&&&&&&&&&&&&&  @@@@@@  ......OO......  &&&&&&&&&&&&&&&&&&&&&&&&",
"&&&&&&&&&&&&&&  @@@@    ..............  &&&&&&&&&&&&&&&&&&&&&&&&",
"&&&&&&&&&&&&&&  @@@@    ..............  &&&&&&&&&&&&&&&&&&&&&&&&",
"&&&&&&&&&&&&&&&&    &&  ..............      &&&&&&&&&&&&&&&&&&&&",
"&&&&&&&&&&&&&&&&    &&  ..............      &&&&&&&&&&&&&&&&&&&&",
"&&&&&&&&&&&&&&&&&&&&&&  ..............oooooo  &&&&&&&&&&&&&&&&&&",
"&&&&&&&&&&&&&&&&&&&&&&  ..............oooooo  &&&&&&&&&&&&&&&&&&",
"&&&&&&&&&&&&&&&&&&&&&&  ............oooooooo  &&&&&&&&&&&&&&&&&&",
"&&&&&&&&&&&&&&&&&&&&&&  ............oooooooo  &&&&&&&&&&&&&&&&&&",
"&&&&&&&&&&&&&&&&&&&&&&  ........oooooooooooo  &&&&&&&&&&&&&&&&&&",
"&&&&&&&&&&&&&&&&&&&&&&  ........oooooooooooo  &&&&&&&&&&&&&&&&&&",
"&&&&&&&&&&&&&&&&&&&&&&  ooXXXX    oooooooo  &&&&&&&&&&&&&&&&&&&&",
"&&&&&&&&&&&&&&&&&&&&&&  ooXXXX    oooooooo  &&&&&&&&&&&&&&&&&&&&",
"&&&&&&&&&&&&&&&&&&&&&&  XXXX  &&&&  oooooo  &&&&&&&&&&&&&&&&&&&&",
"&&&&&&&&&&&&&&&&&&&&&&  XXXX  &&&&  oooooo  &&&&&&&&&&&&&&&&&&&&",
"&&&&&&&&&&&&&&&&&&&&&&  XXXX  &&&&  XXXXXX  &&&&&&&&&&&&&&&&&&&&",
"&&&&&&&&&&&&&&&&&&&&&&  XXXX  &&&&  XXXXXX  &&&&&&&&&&&&&&&&&&&&",
"&&&&&&&&&&&&&&&&&&&&  ooXXXX  &&&&  XXXXXX    &&&&&&&&&&&&&&&&&&",
"&&&&&&&&&&&&&&&&&&&&  ooXXXX  &&&&  XXXXXX    &&&&&&&&&&&&&&&&&&",
"&&&&&&&&&&&&&&&&&&&&  XXXXXX  &&&&            &&&&&&&&&&&&&&&&&&",
"&&&&&&&&&&&&&&&&&&&&  XXXXXX  &&&&            &&&&&&&&&&&&&&&&&&",
"&&&&&&&&&&&&&&&&&&&&  XXXXoo  &&&&      &&&&&&&&&&&&&&&&&&&&&&&&",
"&&&&&&&&&&&&&&&&&&&&  XXXXoo  &&&&      &&&&&&&&&&&&&&&&&&&&&&&&",
"&&&&&&&&&&&&&&&&&&&&  XXXX  &&&&&&&&&&&&&&&&&&&&&&&&&&&&&&&&&&&&",
"&&&&&&&&&&&&&&&&&&&&  XXXX  &&&&&&&&&&&&&&&&&&&&&&&&&&&&&&&&&&&&",
"&&&&&&&&&&&&&&&&&&  XXXXXX  &&&&&&&&&&&&&&&&&&&&&&&&&&&&&&&&&&&&",
"&&&&&&&&&&&&&&&&&&  XXXXXX  &&&&&&&&&&&&&&&&&&&&&&&&&&&&&&&&&&&&",
"&&&&&&&&&&&&&&&&&&  XXXXXX  &&&&&&&&&&&&&&&&&&&&&&&&&&&&&&&&&&&&",
"&&&&&&&&&&&&&&&&&&  XXXXXX  &&&&&&&&&&&&&&&&&&&&&&&&&&&&&&&&&&&&",
"&&&&&&&&&&&&&&&&&&  ooXXXX  &&&&&&&&&&&&&&&&&&&&&&&&&&&&&&&&&&&&",
"&&&&&&&&&&&&&&&&&&  ooXXXX  &&&&&&&&&&&&&&&&&&&&&&&&&&&&&&&&&&&&",
"&&&&&&&&&&&&&&&&&&          &&&&&&&&&&&&&&&&&&&&&&&&&&&&&&&&&&&&",
"&&&&&&&&&&&&&&&&&&          &&&&&&&&&&&&&&&&&&&&&&&&&&&&&&&&&&&&",
"&&&&&&&&&&&&&&&&&&          &&&&&&&&&&&&&&&&&&&&&&&&&&&&&&&&&&&&",
"&&&&&&&&&&&&&&&&&&          &&&&&&&&&&&&&&&&&&&&&&&&&&&&&&&&&&&&"
};
