/* XPM */
static char *result[] = {
/* columns rows colors chars-per-pixel */
"64 64 11 1 ",
"  c black",
". c #37446E",
"X c #D22F1E",
"o c #800C53",
"O c #E6336A",
"+ c #CCAC68",
"@ c #566A89",
"# c #F96B80",
"$ c #FFDBA5",
"% c #CCE2E1",
"& c None",
/* pixels */
"&&&&&&&&&&&&  $$$$  &&&&  OO        &&&&&&&&&&&&&&&&&&&&&&&&&&&&",
"&&&&&&&&&&&&  $$$$  &&&&  OO        &&&&&&&&&&&&&&&&&&&&&&&&&&&&",
"&&&&&&&&&&&&  XXXX  &&  OOOO######OO      &&&&&&&&&&&&&&&&&&&&&&",
"&&&&&&&&&&&&  XXXX  &&  OOOO######OO      &&&&&&&&&&&&&&&&&&&&&&",
"&&&&&&&&&&&&  XXXX    OOOO########OOOOOO  &&&&&&&&&&&&&&&&&&&&&&",
"&&&&&&&&&&&&  XXXX    OOOO########OOOOOO  &&&&&&&&&&&&&&&&&&&&&&",
"&&&&&&&&&&&&  @@@@  OOOOOO########OOOO    &&&&&&&&&&&&&&&&&&&&&&",
"&&&&&&&&&&&&  @@@@  OOOOOO########OOOO    &&&&&&&&&&&&&&&&&&&&&&",
"&&&&&&&&&&&&  @@@@    OOOO######OOOOOOOOOO  &&&&&&&&&&&&&&&&&&&&",
"&&&&&&&&&&&&  @@@@    OOOO######OOOOOOOOOO  &&&&&&&&&&&&&&&&&&&&",
"&&&&&&&&&&&&  @@@@    OOOOOOOOOOOOOOOOOO    &&&&&&&&&&&&&&&&&&&&",
"&&&&&&&&&&&&  @@@@    OOOOOOOOOOOOOOOOOO    &&&&&&&&&&&&&&&&&&&&",
"&&&&&&&&&&&&  @@@@@@  OOOOOOOOOOOOOOOOOO  &&&&&&&&&&&&&&&&&&&&&&",
"&&&&&&&&&&&&  @@@@@@  OOOOOOOOOOOOOOOOOO  &&&&&&&&&&&&&&&&&&&&&&",
"&&&&&&&&&&&&&&  @@@@OOOOOOOOOOOOOOOOOOOO  &&&&&&&&&&&&&&&&&&&&&&",
"&&&&&&&&&&&&&&  @@@@OOOOOOOOOOOOOOOOOOOO  &&&&&&&&&&&&&&&&&&&&&&",
"&&&&&&&&&&&&&&  @@@@%%OOOOOOOOOOOOOOOOOO  &&      &&&&&&&&&&&&&&",
"&&&&&&&&&&&&&&  @@@@%%OOOOOOOOOOOOOOOOOO  &&      &&&&&&&&&&&&&&",
"&&&&&&&&&&&&&&  @@@@@@%%OOOOOOOOOOOOOO@@    ++++  &&&&&&&&&&&&&&",
"&&&&&&&&&&&&&&  @@@@@@%%OOOOOOOOOOOOOO@@    ++++  &&&&&&&&&&&&&&",
"&&&&&&&&&&&&&&&&  @@@@..OO%%OOOOOO@@OO@@%%  ++++  &&&&&&&&&&&&&&",
"&&&&&&&&&&&&&&&&  @@@@..OO%%OOOOOO@@OO@@%%  ++++  &&&&&&&&&&&&&&",
"&&&&&&&&&&&&&&&&&&    ......%%OOOO%%OO%%@@@@oooo  &&&&&&&&&&&&&&",
"&&&&&&&&&&&&&&&&&&    ......%%OOOO%%OO%%@@@@oooo  &&&&&&&&&&&&&&",
"&&&&&&&&&&&&&&&&&&&&&&  ......OOOO......@@@@..oo  &&&&&&&&&&&&&&",
"&&&&&&&&&&&&&&&&&&&&&&  ......OOOO......@@@@..oo  &&&&&&&&&&&&&&",
"&&&&&&&&&&&&&&&&&&&&&&  ......OO........@@@@..  &&&&&&&&&&&&&&&&",
"&&&&&&&&&&&&&&&&&&&&&&  ......OO........@@@@..  &&&&&&&&&&&&&&&&",
"&&&&&&&&&&&&&&&&&&&&&&  ......OO......  @@@@@@  &&&&&&&&&&&&&&&&",
"&&&&&&&&&&&&&&&&&&&&&&  ......OO......  @@@@@@  &&&&&&&&&&&&&&&&",
"&&&&&&&&&&&&&&&&&&&&&&  ..............    @@@@  &&&&&&&&&&&&&&&&",
"&&&&&&&&&&&&&&&&&&&&&&  ..............    @@@@  &&&&&&&&&&&&&&&&",
"&&&&&&&&&&&&&&&&&&      ..............  &&    &&&&&&&&&&&&&&&&&&",
"&&&&&&&&&&&&&&&&&&      ..............  &&    &&&&&&&&&&&&&&&&&&",
"&&&&&&&&&&&&&&&&  oooooo..............  &&&&&&&&&&&&&&&&&&&&&&&&",
"&&&&&&&&&&&&&&&&  oooooo..............  &&&&&&&&&&&&&&&&&&&&&&&&",
"&&&&&&&&&&&&&&&&  oooooooo............  &&&&&&&&&&&&&&&&&&&&&&&&",
"&&&&&&&&&&&&&&&&  oooooooo............  &&&&&&&&&&&&&&&&&&&&&&&&",
"&&&&&&&&&&&&&&&&  oooooooooooo........  &&&&&&&&&&&&&&&&&&&&&&&&",
"&&&&&&&&&&&&&&&&  oooooooooooo........  &&&&&&&&&&&&&&&&&&&&&&&&",
"&&&&&&&&&&&&&&&&&&  oooooooo    oooooo  &&&&&&&&&&&&&&&&&&&&&&&&",
"&&&&&&&&&&&&&&&&&&  oooooooo    oooooo  &&&&&&&&&&&&&&&&&&&&&&&&",
"&&&&&&&&&&&&&&&&&&  oooooo  &&&&  XXXX  &&&&&&&&&&&&&&&&&&&&&&&&",
"&&&&&&&&&&&&&&&&&&  oooooo  &&&&  XXXX  &&&&&&&&&&&&&&&&&&&&&&&&",
"&&&&&&&&&&&&&&&&&&  XXXXXX  &&&&  XXXX  &&&&&&&&&&&&&&&&&&&&&&&&",
"&&&&&&&&&&&&&&&&&&  XXXXXX  &&&&  XXXX  &&&&&&&&&&&&&&&&&&&&&&&&",
"&&&&&&&&&&&&&&&&    XXXXXX  &&&&  XXXXoo  &&&&&&&&&&&&&&&&&&&&&&",
"&&&&&&&&&&&&&&&&    XXXXXX  &&&&  XXXXoo  &&&&&&&&&&&&&&&&&&&&&&",
"&&&&&&&&&&&&&&&&            &&&&  XXXXXX  &&&&&&&&&&&&&&&&&&&&&&",
"&&&&&&&&&&&&&&&&            &&&&  XXXXXX  &&&&&&&&&&&&&&&&&&&&&&",
"&&&&&&&&&&&&&&&&&&&&&&      &&&&  ooXXXX  &&&&&&&&&&&&&&&&&&&&&&",
"&&&&&&&&&&&&&&&&&&&&&&      &&&&  ooXXXX  &&&&&&&&&&&&&&&&&&&&&&",
"&&&&&&&&&&&&&&&&&&&&&&&&&&&&&&&&&&  XXXX  &&&&&&&&&&&&&&&&&&&&&&",
"&&&&&&&&&&&&&&&&&&&&&&&&&&&&&&&&&&  XXXX  &&&&&&&&&&&&&&&&&&&&&&",
"&&&&&&&&&&&&&&&&&&&&&&&&&&&&&&&&&&  XXXXXX  &&&&&&&&&&&&&&&&&&&&",
"&&&&&&&&&&&&&&&&&&&&&&&&&&&&&&&&&&  XXXXXX  &&&&&&&&&&&&&&&&&&&&",
"&&&&&&&&&&&&&&&&&&&&&&&&&&&&&&&&&&  XXXXXX  &&&&&&&&&&&&&&&&&&&&",
"&&&&&&&&&&&&&&&&&&&&&&&&&&&&&&&&&&  XXXXXX  &&&&&&&&&&&&&&&&&&&&",
"&&&&&&&&&&&&&&&&&&&&&&&&&&&&&&&&&&  XXXXoo  &&&&&&&&&&&&&&&&&&&&",
"&&&&&&&&&&&&&&&&&&&&&&&&&&&&&&&&&&  XXXXoo  &&&&&&&&&&&&&&&&&&&&",
"&&&&&&&&&&&&&&&&&&&&&&&&&&&&&&&&&&          &&&&&&&&&&&&&&&&&&&&",
"&&&&&&&&&&&&&&&&&&&&&&&&&&&&&&&&&&          &&&&&&&&&&&&&&&&&&&&",
"&&&&&&&&&&&&&&&&&&&&&&&&&&&&&&&&&&          &&&&&&&&&&&&&&&&&&&&",
"&&&&&&&&&&&&&&&&&&&&&&&&&&&&&&&&&&          &&&&&&&&&&&&&&&&&&&&"
};
