/* XPM */
static char *result[] = {
/* columns rows colors chars-per-pixel */
"64 64 11 1 ",
"  c black",
". c #38002C",
"X c #683C34",
"o c #222A5C",
"O c #2C5B6D",
"+ c #A36D3E",
"@ c #AB1F65",
"# c #E6336A",
"$ c #158968",
"% c #663B93",
"& c None",
/* pixels */
"&&&&&&&&&&      &&&&&&&&&&&&&&&&&&&&&&&&&&&&&&&&&&&&&&&&&&&&&&&&",
"&&&&&&&&&&      &&&&&&&&&&&&&&&&&&&&&&&&&&&&&&&&&&&&&&&&&&&&&&&&",
"&&&&&&&&  ......      &&&&&&&&&&&&&&&&&&&&&&&&&&&&&&&&&&&&&&&&&&",
"&&&&&&&&  ......      &&&&&&&&&&&&&&&&&&&&&&&&&&&&&&&&&&&&&&&&&&",
"&&&&&&&&  ............    &&&&&&&&&&&&&&&&&&&&&&&&&&&&&&&&&&&&&&",
"&&&&&&&&  ............    &&&&&&&&&&&&&&&&&&&&&&&&&&&&&&&&&&&&&&",
"&&&&&&&&&&  ..............  &&&&&&&&&&&&&&&&&&&&&&&&&&&&&&&&&&&&",
"&&&&&&&&&&  ..............  &&&&&&&&&&&&&&&&&&&&&&&&&&&&&&&&&&&&",
"&&&&&&&&&&&&  ....++++....  &&&&&&&&&&&&&&&&&&&&&&&&&&&&&&&&&&&&",
"&&&&&&&&&&&&  ....++++....  &&&&&&&&&&&&&&&&&&&&&&&&&&&&&&&&&&&&",
"&&&&&&&&&&&&  ++++%%  ++  &&&&&&&&&&&&&&&&&&&&&&&&&&&&&&&&&&&&&&",
"&&&&&&&&&&&&  ++++%%  ++  &&&&&&&&&&&&&&&&&&&&&&&&&&&&&&&&&&&&&&",
"&&&&&&&&&&&&    %%%%%%++      &&&&&&&&&&&&&&&&&&&&&&&&&&&&&&&&&&",
"&&&&&&&&&&&&    %%%%%%++      &&&&&&&&&&&&&&&&&&&&&&&&&&&&&&&&&&",
"&&&&&&&&&&&&      %%++######  &&&&&&&&&&&&&&&&&&&&&&&&&&&&&&&&&&",
"&&&&&&&&&&&&      %%++######  &&&&&&&&&&&&&&&&&&&&&&&&&&&&&&&&&&",
"&&&&&&&&&&&&  ##++++##########    &&&&&&&&&&&&&&&&&&&&&&&&&&&&&&",
"&&&&&&&&&&&&  ##++++##########    &&&&&&&&&&&&&&&&&&&&&&&&&&&&&&",
"&&&&&&&&&&&&  ##++++##############  &&&&&&&&&&&&&&&&&&&&&&&&&&&&",
"&&&&&&&&&&&&  ##++++##############  &&&&&&&&&&&&&&&&&&&&&&&&&&&&",
"&&&&&&&&&&&&  ##XXXX######@@######    &&&&&&&&&&&&&&&&&&&&&&&&&&",
"&&&&&&&&&&&&  ##XXXX######@@######    &&&&&&&&&&&&&&&&&&&&&&&&&&",
"&&&&&&&&&&&&  @@XXXXXX@@@@++++++##@@XX  &&&&&&&&&&&&&&&&&&&&&&&&",
"&&&&&&&&&&&&  @@XXXXXX@@@@++++++##@@XX  &&&&&&&&&&&&&&&&&&&&&&&&",
"&&&&&&&&&&&&  @@%%%%%%@@++++++++@@@@XXXX  &&&&&&&&&&&&&&&&&&&&&&",
"&&&&&&&&&&&&  @@%%%%%%@@++++++++@@@@XXXX  &&&&&&&&&&&&&&&&&&&&&&",
"&&&&&&&&&&      %%%%%%@@++++++++@@@@XXXXXX  &&&&&&&&&&&&&&&&&&&&",
"&&&&&&&&&&      %%%%%%@@++++++++@@@@XXXXXX  &&&&&&&&&&&&&&&&&&&&",
"&&&&&&&&&&  ++++++%%%%++++++++++@@    XXXX  &&&&&&&&&&&&&&&&&&&&",
"&&&&&&&&&&  ++++++%%%%++++++++++@@    XXXX  &&&&&&&&&&&&&&&&&&&&",
"&&&&&&&&&&  ++++++++++++++++++@@@@  &&      &&&&&&&&&&&&&&&&&&&&",
"&&&&&&&&&&  ++++++++++++++++++@@@@  &&      &&&&&&&&&&&&&&&&&&&&",
"&&&&&&&&&&&&  ++++++++++++++++@@@@  &&&&&&&&&&&&&&&&&&&&&&&&&&&&",
"&&&&&&&&&&&&  ++++++++++++++++@@@@  &&&&&&&&&&&&&&&&&&&&&&&&&&&&",
"&&&&&&&&&&&&&&    ++++++++++@@@@oooo  &&&&&&&&&&&&&&&&&&&&&&&&&&",
"&&&&&&&&&&&&&&    ++++++++++@@@@oooo  &&&&&&&&&&&&&&&&&&&&&&&&&&",
"&&&&&&&&&&&&&&&&&&  @@%%%%oooooooooo  &&&&&&&&&&&&&&&&&&&&&&&&&&",
"&&&&&&&&&&&&&&&&&&  @@%%%%oooooooooo  &&&&&&&&&&&&&&&&&&&&&&&&&&",
"&&&&&&&&&&&&&&&&        ooooooOO$$$$OO  &&&&&&&&&&&&&&&&&&&&&&&&",
"&&&&&&&&&&&&&&&&        ooooooOO$$$$OO  &&&&&&&&&&&&&&&&&&&&&&&&",
"&&&&&&&&&&&&&&  oooooo    ooOO$$$$$$$$OO  &&&&&&&&&&&&&&&&&&&&&&",
"&&&&&&&&&&&&&&  oooooo    ooOO$$$$$$$$OO  &&&&&&&&&&&&&&&&&&&&&&",
"&&&&&&&&&&&&  ooooooooooooooOO$$$$$$$$$$  &&&&&&&&&&&&&&&&&&&&&&",
"&&&&&&&&&&&&  ooooooooooooooOO$$$$$$$$$$  &&&&&&&&&&&&&&&&&&&&&&",
"&&&&&&&&&&&&  ooooooooooooooooOO$$$$$$$$$$  &&&&&&&&&&&&&&&&&&&&",
"&&&&&&&&&&&&  ooooooooooooooooOO$$$$$$$$$$  &&&&&&&&&&&&&&&&&&&&",
"&&&&&&&&&&&&  oooooooooooooo      $$$$$$$$$$  &&&&&&&&&&&&&&&&&&",
"&&&&&&&&&&&&  oooooooooooooo      $$$$$$$$$$  &&&&&&&&&&&&&&&&&&",
"&&&&&&&&&&&&&&  oooooooooo  &&&&&&  $$$$$$$$OO  &&&&&&&&&&&&&&&&",
"&&&&&&&&&&&&&&  oooooooooo  &&&&&&  $$$$$$$$OO  &&&&&&&&&&&&&&&&",
"&&&&&&&&&&&&&&&&  oooooooooo  &&&&&&  $$$$OOOOOO  &&&&&&&&&&&&&&",
"&&&&&&&&&&&&&&&&  oooooooooo  &&&&&&  $$$$OOOOOO  &&&&&&&&&&&&&&",
"&&&&&&&&&&&&&&&&&&  oooooooooo  &&&&&&  OOOOOOOO  &&&&&&&&&&&&&&",
"&&&&&&&&&&&&&&&&&&  oooooooooo  &&&&&&  OOOOOOOO  &&&&&&&&&&&&&&",
"&&&&&&&&&&&&&&&&&&&&    oooooooo  &&&&&&  OOOOOOOO  &&&&&&&&&&&&",
"&&&&&&&&&&&&&&&&&&&&    oooooooo  &&&&&&  OOOOOOOO  &&&&&&&&&&&&",
"&&&&&&&&&&&&&&&&&&&&&&&&    oooo  &&&&&&&&  OOOOOOOO  &&&&&&&&&&",
"&&&&&&&&&&&&&&&&&&&&&&&&    oooo  &&&&&&&&  OOOOOOOO  &&&&&&&&&&",
"&&&&&&&&&&&&&&&&&&&&&&&&&&  oooo  &&&&&&&&&&  %%%%%%%%  &&&&&&&&",
"&&&&&&&&&&&&&&&&&&&&&&&&&&  oooo  &&&&&&&&&&  %%%%%%%%  &&&&&&&&",
"&&&&&&&&&&&&&&&&&&&&&&&&&&&&      &&&&&&&&&&  %%%%%%%%  &&&&&&&&",
"&&&&&&&&&&&&&&&&&&&&&&&&&&&&      &&&&&&&&&&  %%%%%%%%  &&&&&&&&",
"&&&&&&&&&&&&&&&&&&&&&&&&&&&&&&&&&&&&&&&&&&&&&&&&&&&&&&&&&&&&&&&&",
"&&&&&&&&&&&&&&&&&&&&&&&&&&&&&&&&&&&&&&&&&&&&&&&&&&&&&&&&&&&&&&&&"
};
