/* XPM */
static char *result[] = {
/* columns rows colors chars-per-pixel */
"64 64 11 1 ",
"  c black",
". c #38002C",
"X c #683C34",
"o c #222A5C",
"O c #2C5B6D",
"+ c #A36D3E",
"@ c #AB1F65",
"# c #E6336A",
"$ c #158968",
"% c #663B93",
"& c None",
/* pixels */
"&&&&&&&&&&&&&&&&&&&&&&&&&&&&&&&&&&&&&&&&&&&&&&      &&&&&&&&&&&&",
"&&&&&&&&&&&&&&&&&&&&&&&&&&&&&&&&&&&&&&&&&&&&&&      &&&&&&&&&&&&",
"&&&&&&&&&&&&&&&&&&&&&&&&&&&&&&&&&&&&&&&&      ......  &&&&&&&&&&",
"&&&&&&&&&&&&&&&&&&&&&&&&&&&&&&&&&&&&&&&&      ......  &&&&&&&&&&",
"&&&&&&&&&&&&&&&&&&&&&&&&&&&&&&&&&&&&&&  ............  &&&&&&&&&&",
"&&&&&&&&&&&&&&&&&&&&&&&&&&&&&&&&&&&&&&  ............  &&&&&&&&&&",
"&&&&&&&&&&&&&&&&&&&&&&&&&&&&&&&&&&&&  ..............  &&&&&&&&&&",
"&&&&&&&&&&&&&&&&&&&&&&&&&&&&&&&&&&&&  ..............  &&&&&&&&&&",
"&&&&&&&&&&&&&&&&&&&&&&&&&&&&&&&&&&  ....++++....    &&&&&&&&&&&&",
"&&&&&&&&&&&&&&&&&&&&&&&&&&&&&&&&&&  ....++++....    &&&&&&&&&&&&",
"&&&&&&&&&&&&&&&&&&&&&&&&&&&&&&&&&&  ....  %%++++  &&&&&&&&&&&&&&",
"&&&&&&&&&&&&&&&&&&&&&&&&&&&&&&&&&&  ....  %%++++  &&&&&&&&&&&&&&",
"&&&&&&&&&&&&&&&&&&&&&&&&&&&&&&&&      ++%%%%%%    &&&&&&&&&&&&&&",
"&&&&&&&&&&&&&&&&&&&&&&&&&&&&&&&&      ++%%%%%%    &&&&&&&&&&&&&&",
"&&&&&&&&&&&&&&&&&&&&&&&&&&&&&&&&  ########%%      &&&&&&&&&&&&&&",
"&&&&&&&&&&&&&&&&&&&&&&&&&&&&&&&&  ########%%      &&&&&&&&&&&&&&",
"&&&&&&&&&&&&&&&&&&&&&&&&&&&&&&&&  ##########++  &&&&&&&&&&&&&&&&",
"&&&&&&&&&&&&&&&&&&&&&&&&&&&&&&&&  ##########++  &&&&&&&&&&&&&&&&",
"&&&&&&&&&&&&&&&&&&&&&&&&&&      @@@@########++  &&&&&&&&&&&&&&&&",
"&&&&&&&&&&&&&&&&&&&&&&&&&&      @@@@########++  &&&&&&&&&&&&&&&&",
"&&&&&&&&&&&&&&&&&&&&&&    XXXX@@########@@##XX  &&&&&&&&&&&&&&&&",
"&&&&&&&&&&&&&&&&&&&&&&    XXXX@@########@@##XX  &&&&&&&&&&&&&&&&",
"&&&&&&&&&&&&&&&&&&    XXXXXXXX@@##########XX@@  &&    &&&&&&&&&&",
"&&&&&&&&&&&&&&&&&&    XXXXXXXX@@##########XX@@  &&    &&&&&&&&&&",
"&&&&&&&&&&&&&&&&  XXXXXXXXXX@@@@@@++++++##%%%%    ++++  &&&&&&&&",
"&&&&&&&&&&&&&&&&  XXXXXXXXXX@@@@@@++++++##%%%%    ++++  &&&&&&&&",
"&&&&&&&&&&&&&&  XXXXXXXXXXXX@@@@@@++++++++%%%%  ++++++  &&&&&&&&",
"&&&&&&&&&&&&&&  XXXXXXXXXXXX@@@@@@++++++++%%%%  ++++++  &&&&&&&&",
"&&&&&&&&&&&&&&  XXXXXX      @@@@@@++++++++++@@++++++++  &&&&&&&&",
"&&&&&&&&&&&&&&  XXXXXX      @@@@@@++++++++++@@++++++++  &&&&&&&&",
"&&&&&&&&&&&&&&&&      &&  @@@@@@@@@@++++++++++++++++  &&&&&&&&&&",
"&&&&&&&&&&&&&&&&      &&  @@@@@@@@@@++++++++++++++++  &&&&&&&&&&",
"&&&&&&&&&&&&&&&&&&&&&&&&  @@@@@@@@@@@@++++++++++++  &&&&&&&&&&&&",
"&&&&&&&&&&&&&&&&&&&&&&&&  @@@@@@@@@@@@++++++++++++  &&&&&&&&&&&&",
"&&&&&&&&&&&&&&&&&&&&&&&&  oo@@@@@@@@@@%%++++++++  &&&&&&&&&&&&&&",
"&&&&&&&&&&&&&&&&&&&&&&&&  oo@@@@@@@@@@%%++++++++  &&&&&&&&&&&&&&",
"&&&&&&&&&&&&&&&&&&&&&&&&  oooooooo@@%%%%@@      &&&&&&&&&&&&&&&&",
"&&&&&&&&&&&&&&&&&&&&&&&&  oooooooo@@%%%%@@      &&&&&&&&&&&&&&&&",
"&&&&&&&&&&&&&&&&&&&&&&&&  oooooooooooo      &&&&&&&&&&&&&&&&&&&&",
"&&&&&&&&&&&&&&&&&&&&&&&&  oooooooooooo      &&&&&&&&&&&&&&&&&&&&",
"&&&&&&&&&&&&&&&&&&&&&&&&  OOOOOOoooooo      &&&&&&&&&&&&&&&&&&&&",
"&&&&&&&&&&&&&&&&&&&&&&&&  OOOOOOoooooo      &&&&&&&&&&&&&&&&&&&&",
"&&&&&&&&&&      &&&&&&  OO$$$$OOOOOOoooooo  &&&&&&&&&&&&&&&&&&&&",
"&&&&&&&&&&      &&&&&&  OO$$$$OOOOOOoooooo  &&&&&&&&&&&&&&&&&&&&",
"&&&&&&&&  %%%%OO      OO$$$$$$$$OOoooooooooo  &&&&&&&&&&&&&&&&&&",
"&&&&&&&&  %%%%OO      OO$$$$$$$$OOoooooooooo  &&&&&&&&&&&&&&&&&&",
"&&&&&&&&  %%%%OOOOOOOO$$$$$$$$$$  oooooooooo  &&&&&&&&&&&&&&&&&&",
"&&&&&&&&  %%%%OOOOOOOO$$$$$$$$$$  oooooooooo  &&&&&&&&&&&&&&&&&&",
"&&&&&&  %%%%OOOOOOOO$$$$$$$$$$      oooooooo  &&&&&&&&&&&&&&&&&&",
"&&&&&&  %%%%OOOOOOOO$$$$$$$$$$      oooooooo  &&&&&&&&&&&&&&&&&&",
"&&&&&&  %%%%    OOOO$$$$$$$$  &&&&  oooooooo  &&&&&&&&&&&&&&&&&&",
"&&&&&&  %%%%    OOOO$$$$$$$$  &&&&  oooooooo  &&&&&&&&&&&&&&&&&&",
"&&&&&&&&    &&&&    OO$$$$  &&&&&&  oooooooo  &&&&&&&&&&&&&&&&&&",
"&&&&&&&&    &&&&    OO$$$$  &&&&&&  oooooooo  &&&&&&&&&&&&&&&&&&",
"&&&&&&&&&&&&&&&&&&&&      &&&&&&&&  oooooo  &&&&&&&&&&&&&&&&&&&&",
"&&&&&&&&&&&&&&&&&&&&      &&&&&&&&  oooooo  &&&&&&&&&&&&&&&&&&&&",
"&&&&&&&&&&&&&&&&&&&&&&&&&&&&&&&&&&  oooooo  &&&&&&&&&&&&&&&&&&&&",
"&&&&&&&&&&&&&&&&&&&&&&&&&&&&&&&&&&  oooooo  &&&&&&&&&&&&&&&&&&&&",
"&&&&&&&&&&&&&&&&&&&&&&&&&&&&&&&&&&  oooooo  &&&&&&&&&&&&&&&&&&&&",
"&&&&&&&&&&&&&&&&&&&&&&&&&&&&&&&&&&  oooooo  &&&&&&&&&&&&&&&&&&&&",
"&&&&&&&&&&&&&&&&&&&&&&&&&&&&&&&&&&  ........  &&&&&&&&&&&&&&&&&&",
"&&&&&&&&&&&&&&&&&&&&&&&&&&&&&&&&&&  ........  &&&&&&&&&&&&&&&&&&",
"&&&&&&&&&&&&&&&&&&&&&&&&&&&&&&&&&&  ........  &&&&&&&&&&&&&&&&&&",
"&&&&&&&&&&&&&&&&&&&&&&&&&&&&&&&&&&  ........  &&&&&&&&&&&&&&&&&&"
};
