/* XPM */
static char *result[] = {
/* columns rows colors chars-per-pixel */
"64 64 11 1 ",
"  c black",
". c #38002C",
"X c #683C34",
"o c #222A5C",
"O c #2C5B6D",
"+ c #A36D3E",
"@ c #AB1F65",
"# c #E6336A",
"$ c #158968",
"% c #663B93",
"& c None",
/* pixels */
"&&&&&&&&&&&&&&&&&&&&&&&&&&&&&&&&&&&&&&&&&&&&    &&&&&&&&&&&&&&&&",
"&&&&&&&&&&&&&&&&&&&&&&&&&&&&&&&&&&&&&&&&&&&&    &&&&&&&&&&&&&&&&",
"&&&&&&&&&&&&&&&&&&&&&&&&&&&&&&&&&&&&&&&&&&  ....  &&&&&&&&&&&&&&",
"&&&&&&&&&&&&&&&&&&&&&&&&&&&&&&&&&&&&&&&&&&  ....  &&&&&&&&&&&&&&",
"&&&&&&&&&&&&&&&&&&&&&&&&&&&&&&&&&&&&&&    ......  &&&&&&&&&&&&&&",
"&&&&&&&&&&&&&&&&&&&&&&&&&&&&&&&&&&&&&&    ......  &&&&&&&&&&&&&&",
"&&&&&&&&&&&&&&&&&&&&&&&&&&&&&&&&&&    ..........  &&&&&&&&&&&&&&",
"&&&&&&&&&&&&&&&&&&&&&&&&&&&&&&&&&&    ..........  &&&&&&&&&&&&&&",
"&&&&&&&&&&&&&&&&&&&&&&&&&&&&&&&&  ............  &&&&&&&&&&&&&&&&",
"&&&&&&&&&&&&&&&&&&&&&&&&&&&&&&&&  ............  &&&&&&&&&&&&&&&&",
"&&&&&&&&&&&&&&&&&&&&&&&&&&&&&&&&  ....++++....  &&&&&&&&&&&&&&&&",
"&&&&&&&&&&&&&&&&&&&&&&&&&&&&&&&&  ....++++....  &&&&&&&&&&&&&&&&",
"&&&&&&&&&&&&&&&&&&&&&&&&&&&&&&&&&&  ++  %%++++  &&&&&&&&&&&&&&&&",
"&&&&&&&&&&&&&&&&&&&&&&&&&&&&&&&&&&  ++  %%++++  &&&&&&&&&&&&&&&&",
"&&&&&&&&&&&&&&&&&&&&&&&&&&&&&&      ++%%%%%%    &&&&&&&&&&&&&&&&",
"&&&&&&&&&&&&&&&&&&&&&&&&&&&&&&      ++%%%%%%    &&&&&&&&&&&&&&&&",
"&&&&&&&&&&&&&&&&&&&&&&&&&&&&&&  ########%%        &&&&&&&&&&&&&&",
"&&&&&&&&&&&&&&&&&&&&&&&&&&&&&&  ########%%        &&&&&&&&&&&&&&",
"&&&&&&&&&&&&&&&&&&&&&&&&&&&&    ########++++####  &&&&&&&&&&&&&&",
"&&&&&&&&&&&&&&&&&&&&&&&&&&&&    ########++++####  &&&&&&&&&&&&&&",
"&&&&&&&&&&&&&&&&&&&&&&&&&&  ####@@######++++####  &&&&&&&&&&&&&&",
"&&&&&&&&&&&&&&&&&&&&&&&&&&  ####@@######++++####  &&&&&&&&&&&&&&",
"&&&&&&&&&&&&&&&&&&&&&&&&  ##############XXXX##  &&&&&&&&&&&&&&&&",
"&&&&&&&&&&&&&&&&&&&&&&&&  ##############XXXX##  &&&&&&&&&&&&&&&&",
"&&&&&&&&&&&&&&&&&&&&&&&&  ##++++++@@@@XXXXXX@@  &&&&&&&&&&&&&&&&",
"&&&&&&&&&&&&&&&&&&&&&&&&  ##++++++@@@@XXXXXX@@  &&&&&&&&&&&&&&&&",
"&&&&&&&&&&&&&&&&&&&&&&&&  ++++++++++@@%%%%%%@@  &&&&&&&&&&&&&&&&",
"&&&&&&&&&&&&&&&&&&&&&&&&  ++++++++++@@%%%%%%@@  &&&&&&&&&&&&&&&&",
"&&&&&&&&&&&&&&&&&&&&&&  ++++++++++++@@%%%%%%  &&&&&&&&&&&&&&&&&&",
"&&&&&&&&&&&&&&&&&&&&&&  ++++++++++++@@%%%%%%  &&&&&&&&&&&&&&&&&&",
"&&&&&&&&&&&&&&&&&&&&  ++++++++++++++@@%%%%@@  &&&&&&&&&&&&&&&&&&",
"&&&&&&&&&&&&&&&&&&&&  ++++++++++++++@@%%%%@@  &&&&&&&&&&&&&&&&&&",
"&&&&&&&&&&&&&&&&&&  ++++++++++++++@@%%%%%%XX  &&&&&&&&&&&&&&&&&&",
"&&&&&&&&&&&&&&&&&&  ++++++++++++++@@%%%%%%XX  &&&&&&&&&&&&&&&&&&",
"&&&&&&&&&&&&&&&&&&  ++++++++++++++@@%%%%@@XXXX  &&&&&&&&&&&&&&&&",
"&&&&&&&&&&&&&&&&&&  ++++++++++++++@@%%%%@@XXXX  &&&&&&&&&&&&&&&&",
"&&&&&&&&&&&&&&&&&&&&  ++++++++++++++++%%XXXXXXXX  &&&&&&&&&&&&&&",
"&&&&&&&&&&&&&&&&&&&&  ++++++++++++++++%%XXXXXXXX  &&&&&&&&&&&&&&",
"&&&&&&&&&&&&&&&&&&&&&&  oo++++++++++++@@  XXXXXX  &&&&&&&&&&&&&&",
"&&&&&&&&&&&&&&&&&&&&&&  oo++++++++++++@@  XXXXXX  &&&&&&&&&&&&&&",
"&&&&&&&&&&&&&&&&&&&&&&  OO$$$$++++++    &&      &&&&&&&&&&&&&&&&",
"&&&&&&&&&&&&&&&&&&&&&&  OO$$$$++++++    &&      &&&&&&&&&&&&&&&&",
"&&&&&&&&&&&&&&&&&&&&&&  OO$$$$$$OOoo    &&&&&&&&&&&&&&&&&&&&&&&&",
"&&&&&&&&&&&&&&&&&&&&&&  OO$$$$$$OOoo    &&&&&&&&&&&&&&&&&&&&&&&&",
"&&&&&&&&&&&&&&&&&&&&  ooOO$$$$$$OOoo  &&&&&&&&&&&&&&&&&&&&&&&&&&",
"&&&&&&&&&&&&&&&&&&&&  ooOO$$$$$$OOoo  &&&&&&&&&&&&&&&&&&&&&&&&&&",
"&&&&&&&&&&&&&&&&      ooOO$$$$$$$$oo  &&&&&&&&&&&&&&&&&&&&&&&&&&",
"&&&&&&&&&&&&&&&&      ooOO$$$$$$$$oo  &&&&&&&&&&&&&&&&&&&&&&&&&&",
"&&&&&&&&&&&&&&  %%%%OOOOOOOO$$$$$$  &&&&&&&&&&&&&&&&&&&&&&&&&&&&",
"&&&&&&&&&&&&&&  %%%%OOOOOOOO$$$$$$  &&&&&&&&&&&&&&&&&&&&&&&&&&&&",
"&&&&&&&&&&&&&&  %%%%OOOOOOOO$$$$$$  &&&&&&&&&&&&&&&&&&&&&&&&&&&&",
"&&&&&&&&&&&&&&  %%%%OOOOOOOO$$$$$$  &&&&&&&&&&&&&&&&&&&&&&&&&&&&",
"&&&&&&&&&&&&&&  %%%%OOOOOOOOOO$$$$  &&&&&&&&&&&&&&&&&&&&&&&&&&&&",
"&&&&&&&&&&&&&&  %%%%OOOOOOOOOO$$$$  &&&&&&&&&&&&&&&&&&&&&&&&&&&&",
"&&&&&&&&&&&&&&  %%%%ooooOOOOOOOO  &&&&&&&&&&&&&&&&&&&&&&&&&&&&&&",
"&&&&&&&&&&&&&&  %%%%ooooOOOOOOOO  &&&&&&&&&&&&&&&&&&&&&&&&&&&&&&",
"&&&&&&&&&&&&&&&&  oooooooo      &&&&&&&&&&&&&&&&&&&&&&&&&&&&&&&&",
"&&&&&&&&&&&&&&&&  oooooooo      &&&&&&&&&&&&&&&&&&&&&&&&&&&&&&&&",
"&&&&&&&&&&&&&&&&  oooooo  &&&&&&&&&&&&&&&&&&&&&&&&&&&&&&&&&&&&&&",
"&&&&&&&&&&&&&&&&  oooooo  &&&&&&&&&&&&&&&&&&&&&&&&&&&&&&&&&&&&&&",
"&&&&&&&&&&&&&&&&  ........  &&&&&&&&&&&&&&&&&&&&&&&&&&&&&&&&&&&&",
"&&&&&&&&&&&&&&&&  ........  &&&&&&&&&&&&&&&&&&&&&&&&&&&&&&&&&&&&",
"&&&&&&&&&&&&&&&&  ........  &&&&&&&&&&&&&&&&&&&&&&&&&&&&&&&&&&&&",
"&&&&&&&&&&&&&&&&  ........  &&&&&&&&&&&&&&&&&&&&&&&&&&&&&&&&&&&&"
};
