/* XPM */
static char *result[] = {
/* columns rows colors chars-per-pixel */
"64 64 11 1 ",
"  c black",
". c #38002C",
"X c #683C34",
"o c #222A5C",
"O c #2C5B6D",
"+ c #A36D3E",
"@ c #AB1F65",
"# c #E6336A",
"$ c #158968",
"% c #663B93",
"& c None",
/* pixels */
"&&&&&&&&&&&&&&&&&&&&&&&&&&&&&&&&&&&&&&&&&&&&    &&&&&&&&&&&&&&&&",
"&&&&&&&&&&&&&&&&&&&&&&&&&&&&&&&&&&&&&&&&&&&&    &&&&&&&&&&&&&&&&",
"&&&&&&&&&&&&&&&&&&&&&&&&&&&&&&&&&&&&&&&&&&  ....  &&&&&&&&&&&&&&",
"&&&&&&&&&&&&&&&&&&&&&&&&&&&&&&&&&&&&&&&&&&  ....  &&&&&&&&&&&&&&",
"&&&&&&&&&&&&&&&&&&&&&&&&&&&&&&&&&&&&      ......  &&&&&&&&&&&&&&",
"&&&&&&&&&&&&&&&&&&&&&&&&&&&&&&&&&&&&      ......  &&&&&&&&&&&&&&",
"&&&&&&&&&&&&&&&&&&&&&&&&&&&&&&&&&&  ............  &&&&&&&&&&&&&&",
"&&&&&&&&&&&&&&&&&&&&&&&&&&&&&&&&&&  ............  &&&&&&&&&&&&&&",
"&&&&&&&&&&&&&&&&&&&&&&&&&&&&&&&&  ............  &&&&&&&&&&&&&&&&",
"&&&&&&&&&&&&&&&&&&&&&&&&&&&&&&&&  ............  &&&&&&&&&&&&&&&&",
"&&&&&&&&&&&&&&&&&&&&&&&&&&&&&&&&  ....++++....  &&&&&&&&&&&&&&&&",
"&&&&&&&&&&&&&&&&&&&&&&&&&&&&&&&&  ....++++....  &&&&&&&&&&&&&&&&",
"&&&&&&&&&&&&&&&&&&&&&&&&&&&&&&&&&&  ++  %%++++  &&&&&&&&&&&&&&&&",
"&&&&&&&&&&&&&&&&&&&&&&&&&&&&&&&&&&  ++  %%++++  &&&&&&&&&&&&&&&&",
"&&&&&&&&&&&&&&&&&&&&&&&&&&&&        ++%%%%%%    &&&&&&&&&&&&&&&&",
"&&&&&&&&&&&&&&&&&&&&&&&&&&&&        ++%%%%%%    &&&&&&&&&&&&&&&&",
"&&&&&&&&&&&&&&&&&&&&&&&&&&&&  ########++%%      &&&&&&&&&&&&&&&&",
"&&&&&&&&&&&&&&&&&&&&&&&&&&&&  ########++%%      &&&&&&&&&&&&&&&&",
"&&&&&&&&&&&&&&&&&&&&&&&&      ########++++++++##  &&&&&&&&&&&&&&",
"&&&&&&&&&&&&&&&&&&&&&&&&      ########++++++++##  &&&&&&&&&&&&&&",
"&&&&&&&&&&&&&&&&&&&&&&  ######@@######++++++@@##  &&&&&&&&&&&&&&",
"&&&&&&&&&&&&&&&&&&&&&&  ######@@######++++++@@##  &&&&&&&&&&&&&&",
"&&&&&&&&&&&&&&&&&&&&  ++++++##########XXXXXX####  &&&&&&&&&&&&&&",
"&&&&&&&&&&&&&&&&&&&&  ++++++##########XXXXXX####  &&&&&&&&&&&&&&",
"&&&&&&&&&&&&&&&&&&  ++++++++++##@@@@XXXXXXXX##@@  &&&&&&&&&&&&&&",
"&&&&&&&&&&&&&&&&&&  ++++++++++##@@@@XXXXXXXX##@@  &&&&&&&&&&&&&&",
"&&&&&&&&&&&&&&&&&&  ++++++++++@@@@@@%%%%%%%%@@##  &&&&&&&&&&&&&&",
"&&&&&&&&&&&&&&&&&&  ++++++++++@@@@@@%%%%%%%%@@##  &&&&&&&&&&&&&&",
"&&&&&&&&&&&&&&&&  ++++++++++++@@@@%%%%%%%%@@##  &&&&&&&&&&&&&&&&",
"&&&&&&&&&&&&&&&&  ++++++++++++@@@@%%%%%%%%@@##  &&&&&&&&&&&&&&&&",
"&&&&&&&&&&&&&&&&  ++++++++++@@@@@@%%%%%%%%@@@@  &&&&&&&&&&&&&&&&",
"&&&&&&&&&&&&&&&&  ++++++++++@@@@@@%%%%%%%%@@@@  &&&&&&&&&&&&&&&&",
"&&&&&&&&&&&&&&  ++++++++++++@@@@@@%%%%%%@@@@  &&&&&&&&&&&&&&&&&&",
"&&&&&&&&&&&&&&  ++++++++++++@@@@@@%%%%%%@@@@  &&&&&&&&&&&&&&&&&&",
"&&&&&&&&&&&&&&  ++++++++++++@@++++++%%%%@@XXXX  &&&&&&&&&&&&&&&&",
"&&&&&&&&&&&&&&  ++++++++++++@@++++++%%%%@@XXXX  &&&&&&&&&&&&&&&&",
"&&&&&&&&&&&&&&  ++++++++++++++++++++%%@@@@XXXX  &&&&&&&&&&&&&&&&",
"&&&&&&&&&&&&&&  ++++++++++++++++++++%%@@@@XXXX  &&&&&&&&&&&&&&&&",
"&&&&&&&&&&&&&&&&  ++++++++++++++++++%%@@XX    &&&&&&&&&&&&&&&&&&",
"&&&&&&&&&&&&&&&&  ++++++++++++++++++%%@@XX    &&&&&&&&&&&&&&&&&&",
"&&&&&&&&&&&&&&&&&&    ++++++++++oooo      &&&&&&&&&&&&&&&&&&&&&&",
"&&&&&&&&&&&&&&&&&&    ++++++++++oooo      &&&&&&&&&&&&&&&&&&&&&&",
"&&&&&&&&&&&&&&&&&&&&&&  oo$$$$OOOO      &&&&&&&&&&&&&&&&&&&&&&&&",
"&&&&&&&&&&&&&&&&&&&&&&  oo$$$$OOOO      &&&&&&&&&&&&&&&&&&&&&&&&",
"&&&&&&&&&&&&&&&&&&&&&&  oo$$$$$$OOoo  &&&&&&&&&&&&&&&&&&&&&&&&&&",
"&&&&&&&&&&&&&&&&&&&&&&  oo$$$$$$OOoo  &&&&&&&&&&&&&&&&&&&&&&&&&&",
"&&&&&&&&&&&&&&&&&&      $$$$$$$$OOoo  &&&&&&&&&&&&&&&&&&&&&&&&&&",
"&&&&&&&&&&&&&&&&&&      $$$$$$$$OOoo  &&&&&&&&&&&&&&&&&&&&&&&&&&",
"&&&&&&&&&&&&&&&&  ....oo$$$$$$$$oooo  &&&&&&&&&&&&&&&&&&&&&&&&&&",
"&&&&&&&&&&&&&&&&  ....oo$$$$$$$$oooo  &&&&&&&&&&&&&&&&&&&&&&&&&&",
"&&&&&&&&&&&&&&&&  ....oo$$$$$$OOoooo  &&&&&&&&&&&&&&&&&&&&&&&&&&",
"&&&&&&&&&&&&&&&&  ....oo$$$$$$OOoooo  &&&&&&&&&&&&&&&&&&&&&&&&&&",
"&&&&&&&&&&&&&&  ......OOOO$$$$oooo  &&&&&&&&&&&&&&&&&&&&&&&&&&&&",
"&&&&&&&&&&&&&&  ......OOOO$$$$oooo  &&&&&&&&&&&&&&&&&&&&&&&&&&&&",
"&&&&&&&&&&&&&&  ....  OOOOOOOO    &&&&&&&&&&&&&&&&&&&&&&&&&&&&&&",
"&&&&&&&&&&&&&&  ....  OOOOOOOO    &&&&&&&&&&&&&&&&&&&&&&&&&&&&&&",
"&&&&&&&&&&&&&&      OOOOOOOO  &&&&&&&&&&&&&&&&&&&&&&&&&&&&&&&&&&",
"&&&&&&&&&&&&&&      OOOOOOOO  &&&&&&&&&&&&&&&&&&&&&&&&&&&&&&&&&&",
"&&&&&&&&&&&&&&&&&&  OOOOOO  &&&&&&&&&&&&&&&&&&&&&&&&&&&&&&&&&&&&",
"&&&&&&&&&&&&&&&&&&  OOOOOO  &&&&&&&&&&&&&&&&&&&&&&&&&&&&&&&&&&&&",
"&&&&&&&&&&&&&&&&&&  %%%%%%%%  &&&&&&&&&&&&&&&&&&&&&&&&&&&&&&&&&&",
"&&&&&&&&&&&&&&&&&&  %%%%%%%%  &&&&&&&&&&&&&&&&&&&&&&&&&&&&&&&&&&",
"&&&&&&&&&&&&&&&&&&  %%%%%%%%  &&&&&&&&&&&&&&&&&&&&&&&&&&&&&&&&&&",
"&&&&&&&&&&&&&&&&&&  %%%%%%%%  &&&&&&&&&&&&&&&&&&&&&&&&&&&&&&&&&&"
};
