/* XPM */
static char *result[] = {
/* columns rows colors chars-per-pixel */
"64 64 9 1 ",
"  c black",
". c #38002C",
"X c #683C34",
"o c #222A5C",
"O c #2C5B6D",
"+ c #A36D3E",
"@ c #AB1F65",
"# c #E6336A",
"$ c None",
/* pixels */
"$$$$$$$$$$$$  ++++++  $$$$$$  ......  $$$$$$$$$$$$$$$$$$$$$$$$$$",
"$$$$$$$$$$$$  ++++++  $$$$$$  ......  $$$$$$$$$$$$$$$$$$$$$$$$$$",
"$$$$$$$$$$$$  ++++++  $$    ........  $$$$$$$$$$$$$$$$$$$$$$$$$$",
"$$$$$$$$$$$$  ++++++  $$    ........  $$$$$$$$$$$$$$$$$$$$$$$$$$",
"$$$$$$$$$$$$  ++++++    ..............  $$$$$$$$$$$$$$$$$$$$$$$$",
"$$$$$$$$$$$$  ++++++    ..............  $$$$$$$$$$$$$$$$$$$$$$$$",
"$$$$$$$$$$  ++++++++    ..............  $$$$$$$$$$$$$$$$$$$$$$$$",
"$$$$$$$$$$  ++++++++    ..............  $$$$$$$$$$$$$$$$$$$$$$$$",
"$$$$$$$$$$  ++++++++  $$  ..........  $$$$$$$$$$$$$$$$$$$$$$$$$$",
"$$$$$$$$$$  ++++++++  $$  ..........  $$$$$$$$$$$$$$$$$$$$$$$$$$",
"$$$$$$$$$$  ++++++++      ..........  $$$$$$$$$$$$$$$$$$$$$$$$$$",
"$$$$$$$$$$  ++++++++      ..........  $$$$$$$$$$$$$$$$$$$$$$$$$$",
"$$$$$$$$$$  ++++++XX    ##..........    $$$$$$$$$$$$$$$$$$$$$$$$",
"$$$$$$$$$$  ++++++XX    ##..........    $$$$$$$$$$$$$$$$$$$$$$$$",
"$$$$$$$$$$  ++++++XX    ######......##  $$$$$$$$$$$$$$$$$$$$$$$$",
"$$$$$$$$$$  ++++++XX    ######......##  $$$$$$$$$$$$$$$$$$$$$$$$",
"$$$$$$$$$$  ++++++######@@############  $$      $$$$$$$$$$$$$$$$",
"$$$$$$$$$$  ++++++######@@############  $$      $$$$$$$$$$$$$$$$",
"$$$$$$$$$$  ++++++########@@##########    XXXXXX  $$$$$$$$$$$$$$",
"$$$$$$$$$$  ++++++########@@##########    XXXXXX  $$$$$$$$$$$$$$",
"$$$$$$$$$$$$  ++++@@##########@@@@##@@######XXXX  $$$$$$$$$$$$$$",
"$$$$$$$$$$$$  ++++@@##########@@@@##@@######XXXX  $$$$$$$$$$$$$$",
"$$$$$$$$$$$$  ++++++########################++XXXX  $$$$$$$$$$$$",
"$$$$$$$$$$$$  ++++++########################++XXXX  $$$$$$$$$$$$",
"$$$$$$$$$$$$$$  ++++@@####################@@++++XX  $$$$$$$$$$$$",
"$$$$$$$$$$$$$$  ++++@@####################@@++++XX  $$$$$$$$$$$$",
"$$$$$$$$$$$$$$$$    @@@@##################++++++XXXX  $$$$$$$$$$",
"$$$$$$$$$$$$$$$$    @@@@##################++++++XXXX  $$$$$$$$$$",
"$$$$$$$$$$$$$$$$$$$$  @@@@@@############@@++++++++XX  $$$$$$$$$$",
"$$$$$$$$$$$$$$$$$$$$  @@@@@@############@@++++++++XX  $$$$$$$$$$",
"$$$$$$$$$$$$$$$$$$$$  @@@@@@@@@@@@@@@@@@@@++++++++XX  $$$$$$$$$$",
"$$$$$$$$$$$$$$$$$$$$  @@@@@@@@@@@@@@@@@@@@++++++++XX  $$$$$$$$$$",
"$$$$$$$$$$$$$$$$$$$$    oo@@@@@@@@@@@@@@  ++++++++XX  $$$$$$$$$$",
"$$$$$$$$$$$$$$$$$$$$    oo@@@@@@@@@@@@@@  ++++++++XX  $$$$$$$$$$",
"$$$$$$$$$$$$$$$$$$$$    oooooooo@@@@@@@@    ++++XX  $$$$$$$$$$$$",
"$$$$$$$$$$$$$$$$$$$$    oooooooo@@@@@@@@    ++++XX  $$$$$$$$$$$$",
"$$$$$$$$$$$$$$$$$$$$  OOOOoooooooooooo    $$      $$$$$$$$$$$$$$",
"$$$$$$$$$$$$$$$$$$$$  OOOOoooooooooooo    $$      $$$$$$$$$$$$$$",
"$$$$$$$$$$$$$$$$$$$$  OOOOOOOOoooooooo    $$$$$$$$$$$$$$$$$$$$$$",
"$$$$$$$$$$$$$$$$$$$$  OOOOOOOOoooooooo    $$$$$$$$$$$$$$$$$$$$$$",
"$$$$$$$$$$$$$$$$$$$$  OOOOOOOOOOOOOOOOOO  $$$$$$$$$$$$$$$$$$$$$$",
"$$$$$$$$$$$$$$$$$$$$  OOOOOOOOOOOOOOOOOO  $$$$$$$$$$$$$$$$$$$$$$",
"$$$$$$$$$$$$$$$$$$$$  OOOOOOOOOOOOOOOOOO  $$$$$$$$$$$$$$$$$$$$$$",
"$$$$$$$$$$$$$$$$$$$$  OOOOOOOOOOOOOOOOOO  $$$$$$$$$$$$$$$$$$$$$$",
"$$$$$$$$$$$$$$$$$$$$  OOOOOOOOOOOOOOOOOOOO  $$$$$$$$$$$$$$$$$$$$",
"$$$$$$$$$$$$$$$$$$$$  OOOOOOOOOOOOOOOOOOOO  $$$$$$$$$$$$$$$$$$$$",
"$$$$$$$$$$$$$$$$$$$$  OOOOOO      OOOOOOOO  $$$$$$$$$$$$$$$$$$$$",
"$$$$$$$$$$$$$$$$$$$$  OOOOOO      OOOOOOOO  $$$$$$$$$$$$$$$$$$$$",
"$$$$$$$$$$$$$$$$$$$$  OOOOOO  $$  OOOOOOOO  $$$$$$$$$$$$$$$$$$$$",
"$$$$$$$$$$$$$$$$$$$$  OOOOOO  $$  OOOOOOOO  $$$$$$$$$$$$$$$$$$$$",
"$$$$$$$$$$$$$$$$$$$$  OOOOOO  $$$$  OOOOOO  $$$$$$$$$$$$$$$$$$$$",
"$$$$$$$$$$$$$$$$$$$$  OOOOOO  $$$$  OOOOOO  $$$$$$$$$$$$$$$$$$$$",
"$$$$$$$$$$$$$$$$$$  oooooooo  $$$$  OOOOoooo  $$$$$$$$$$$$$$$$$$",
"$$$$$$$$$$$$$$$$$$  oooooooo  $$$$  OOOOoooo  $$$$$$$$$$$$$$$$$$",
"$$$$$$$$$$$$$$$$$$  oooooooo  $$$$$$  oooooo  $$$$$$$$$$$$$$$$$$",
"$$$$$$$$$$$$$$$$$$  oooooooo  $$$$$$  oooooo  $$$$$$$$$$$$$$$$$$",
"$$$$$$$$$$$$$$$$$$  oooooo  $$$$$$$$  oooooo  $$$$$$$$$$$$$$$$$$",
"$$$$$$$$$$$$$$$$$$  oooooo  $$$$$$$$  oooooo  $$$$$$$$$$$$$$$$$$",
"$$$$$$$$$$$$$$$$$$  oooooo  $$$$$$$$  oooooo  $$$$$$$$$$$$$$$$$$",
"$$$$$$$$$$$$$$$$$$  oooooo  $$$$$$$$  oooooo  $$$$$$$$$$$$$$$$$$",
"$$$$$$$$$$$$$$$$$$  oooooo  $$$$$$$$  oooooooo  $$$$$$$$$$$$$$$$",
"$$$$$$$$$$$$$$$$$$  oooooo  $$$$$$$$  oooooooo  $$$$$$$$$$$$$$$$",
"$$$$$$$$$$$$$$$$$$  oooooo  $$$$$$$$$$  oooooo  $$$$$$$$$$$$$$$$",
"$$$$$$$$$$$$$$$$$$  oooooo  $$$$$$$$$$  oooooo  $$$$$$$$$$$$$$$$"
};
