/* XPM */
static char *result[] = {
/* columns rows colors chars-per-pixel */
"64 64 6 1 ",
"  c black",
". c #E91E63",
"X c #311B92",
"o c #4527A0",
"O c #673AB7",
"+ c #9C27B0",
/* pixels */
"                                                                ",
"                                                                ",
"                                                                ",
"   XXXXXXXXXXXXXXXXXXXXXXXXXXXXXXXXXXXXXXXXXXXXXXXXXXXXXXXXXX   ",
"   XXXXXXXXXXXXXXXXXXXXXXXXXXXXXXXXXXXXXXXXXXXXXXXXXXXXXXXXXX   ",
"   XXooooooooooooooooooooooooooooooooooooooooooooooooooooooXX   ",
"   XXooooooooooooooooooooooooooooooooooooooooooooooooooooooXX   ",
"   XXooOOOOOOOOOOOOOOOOOOOOOOOOOOOOOOOOOOOOOOOOOOOOOOOOOOooXX   ",
"   XXooOOOOOOOOOOOOOOOOOOOOOOOOOOOOOOOOOOOOOOOOOOOOOOOOOOooXX   ",
"   XXooOO++++++++++++++++++++++++++++++++++++++++++++++OOooXX   ",
"   XXooOO++++++++++++++++++++++++++++++++++++++++++++++OOooXX   ",
"   XXooOO++..........................................++OOooXX   ",
"   XXooOO++..........................................++OOooXX   ",
"   XXooOO++..                                      ..++OOooXX   ",
"   XXooOO++..                                      ..++OOooXX   ",
"   XXooOO++..                                      ..++OOooXX   ",
"   XXooOO++..                                      ..++OOooXX   ",
"   XXooOO++..                                      ..++OOooXX   ",
"   XXooOO++..                                      ..++OOooXX   ",
"   XXooOO++..                                      ..++OOooXX   ",
"   XXooOO++..                                      ..++OOooXX   ",
"   XXooOO++..                                      ..++OOooXX   ",
"   XXooOO++..                                      ..++OOooXX   ",
"   XXooOO++..                                      ..++OOooXX   ",
"   XXooOO++..                                      ..++OOooXX   ",
"   XXooOO++..                                      ..++OOooXX   ",
"   XXooOO++..                                      ..++OOooXX   ",
"   XXooOO++..                                      ..++OOooXX   ",
"   XXooOO++..                                      ..++OOooXX   ",
"   XXooOO++..                                      ..++OOooXX   ",
"   XXooOO++..                                      ..++OOooXX   ",
"   XXooOO++..                                      ..++OOooXX   ",
"   XXooOO++..                                      ..++OOooXX   ",
"   XXooOO++..                                      ..++OOooXX   ",
"   XXooOO++..                                      ..++OOooXX   ",
"   XXooOO++..                                      ..++OOooXX   ",
"   XXooOO++..                                      ..++OOooXX   ",
"   XXooOO++..                                      ..++OOooXX   ",
"   XXooOO++..                                      ..++OOooXX   ",
"   XXooOO++..                                      ..++OOooXX   ",
"   XXooOO++..                                      ..++OOooXX   ",
"   XXooOO++..                                      ..++OOooXX   ",
"   XXooOO++..                                      ..++OOooXX   ",
"   XXooOO++..                                      ..++OOooXX   ",
"   XXooOO++..                                      ..++OOooXX   ",
"   XXooOO++..                                      ..++OOooXX   ",
"   XXooOO++..                                      ..++OOooXX   ",
"   XXooOO++..                                      ..++OOooXX   ",
"   XXooOO++..                                      ..++OOooXX   ",
"   XXooOO++..                                      ..++OOooXX   ",
"   XXooOO++..                                      ..++OOooXX   ",
"   XXooOO++..........................................++OOooXX   ",
"   XXooOO++..........................................++OOooXX   ",
"   XXooOO++++++++++++++++++++++++++++++++++++++++++++++OOooXX   ",
"   XXooOO++++++++++++++++++++++++++++++++++++++++++++++OOooXX   ",
"   XXooOOOOOOOOOOOOOOOOOOOOOOOOOOOOOOOOOOOOOOOOOOOOOOOOOOooXX   ",
"   XXooOOOOOOOOOOOOOOOOOOOOOOOOOOOOOOOOOOOOOOOOOOOOOOOOOOooXX   ",
"   XXooooooooooooooooooooooooooooooooooooooooooooooooooooooXX   ",
"   XXooooooooooooooooooooooooooooooooooooooooooooooooooooooXX   ",
"   XXXXXXXXXXXXXXXXXXXXXXXXXXXXXXXXXXXXXXXXXXXXXXXXXXXXXXXXXX   ",
"   XXXXXXXXXXXXXXXXXXXXXXXXXXXXXXXXXXXXXXXXXXXXXXXXXXXXXXXXXX   ",
"                                                                ",
"                                                                ",
"                                                                "
};
